<svg width="1199" height="226" viewBox="0 0 1199 226" fill="none" xmlns="http://www.w3.org/2000/svg">
<path fill-rule="evenodd" clip-rule="evenodd" d="M157.789 2.34518C151.475 3.48705 141.164 5.94405 134.877 7.80728C128.589 9.66893 117.045 14.3467 109.223 18.1991C101.401 22.0532 90.3903 28.9454 84.7554 33.5192C79.1205 38.0914 71.2371 45.8813 67.2377 50.83C63.2367 55.7802 58.0174 63.7938 55.6377 68.6385C53.2563 73.4832 50.3125 80.7487 49.0926 84.7854C47.8727 88.8222 46.4853 96.3774 46.0081 101.575L45.139 111.025L48.7971 99.2124C50.8071 92.7156 54.5236 83.6294 57.0535 79.0194C59.5818 74.4093 65.8329 66.0902 70.9432 60.532L80.2361 50.4252L94.1732 41.1327C101.839 36.0218 113.884 29.621 120.941 26.9073C128 24.1952 139.627 20.5396 146.78 18.7835L159.788 15.5909L181.12 14.7137L202.453 13.8364L218.098 16.4036C226.704 17.8148 238.988 20.7239 245.395 22.8674C251.803 25.0126 262.618 29.558 269.427 32.9711C276.237 36.3841 286.352 42.7833 291.906 47.1917C297.459 51.6002 305.41 59.261 309.574 64.2159C313.738 69.1709 319.319 77.6003 321.977 82.9458L326.809 92.6683L334.158 90.4066C338.2 89.1624 344.541 87.359 348.25 86.3982C351.959 85.4359 355.274 84.1964 355.617 83.6436C355.961 83.0892 353.109 78.0381 349.279 72.4185C345.45 66.7974 337.536 57.3426 331.695 51.4049C325.853 45.4687 316.683 37.4897 311.32 33.6735C305.955 29.8589 294.199 23.2596 285.193 19.0087C276.188 14.7578 263.167 9.72563 256.259 7.82618C249.35 5.92673 237.618 3.38783 230.186 2.1861L216.674 0L192.972 0.13545L169.269 0.2709L157.789 2.34518ZM681.041 15.3909C676.585 16.9754 671.246 19.3788 669.176 20.7302C667.107 22.0815 664.556 24.8771 663.506 26.9435C662.457 29.0099 655.135 51.8396 647.235 77.6775L632.872 124.657L633.355 130.284L633.839 135.912L638.299 139.219L642.762 142.525H661.212H679.664L686.694 138.587C690.56 136.422 695.056 132.369 696.687 129.58C698.316 126.792 706.335 102.451 714.508 75.4882L729.366 26.4663L727.151 22.1965C725.932 19.8466 722.927 16.9706 720.471 15.802C718.016 14.6349 709.963 13.4159 702.576 13.093L689.145 12.5071L681.041 15.3909ZM1096.47 30.251C1091.32 40.0271 1079.75 60.0737 1070.77 74.7999C1061.79 89.5262 1051.42 107.988 1047.72 115.827C1044.03 123.664 1039.82 134.157 1038.36 139.142C1036.91 144.127 1036.07 149.119 1036.5 150.236C1036.93 151.353 1039.89 153.498 1043.07 155.004C1046.25 156.508 1049.77 157.39 1050.89 156.96C1052.01 156.531 1053.79 152.772 1054.84 148.608L1056.76 141.033L1060.76 148.297C1062.97 152.292 1066.58 156.525 1068.8 157.705C1071.01 158.884 1076.15 159.748 1080.22 159.622L1087.61 159.393L1093.8 156.24C1097.2 154.504 1103.37 150.118 1107.49 146.491L1115 139.895V144.52V149.148L1124.59 145.836L1134.18 142.525L1136.44 145.582C1137.68 147.264 1138.7 150.372 1138.7 152.487C1138.7 154.604 1137.91 158.981 1136.94 162.214L1135.17 168.092L1128.64 166.183L1122.11 164.274L983.846 165.501C907.8 166.175 734.298 167.514 598.285 168.476C462.272 169.439 272.173 170.848 175.844 171.61C79.514 172.371 0.385493 173.307 0.00151261 173.689C-0.382468 174.072 72.389 174.863 161.714 175.446C251.041 176.03 414.788 177.164 525.597 177.967C636.406 178.77 803.707 179.908 897.374 180.495L1067.68 181.561L1065.22 184.881C1063.87 186.707 1061.66 190.621 1060.31 193.58C1058.96 196.54 1057.73 201.983 1057.59 205.676L1057.33 212.39L1060.63 216.833C1062.44 219.276 1066 222.338 1068.53 223.637L1073.13 226H1086.59H1100.06L1110.43 220.91L1120.8 215.821L1131.05 206.454L1141.31 197.089L1148.3 203.208C1152.15 206.574 1156.21 209.359 1157.33 209.395C1158.45 209.433 1162.16 208.043 1165.57 206.308C1168.99 204.572 1172.55 201.717 1173.49 199.964L1175.2 196.774L1169.2 191.487C1165.9 188.578 1161.1 184.44 1158.54 182.292L1153.89 178.385L1156.57 170.117C1158.04 165.57 1159.24 157.503 1159.24 152.188L1159.23 142.525L1156.03 137.294L1152.83 132.062L1160.77 124.953C1165.13 121.042 1174.03 111.507 1180.55 103.763C1187.07 96.0199 1193.89 86.7841 1195.7 83.2404L1199 76.7986L1198.1 73.236C1197.61 71.2767 1195.35 68.4637 1193.09 66.9848L1188.97 64.2947L1185.56 67.4085C1183.69 69.1221 1177.36 73.4265 1171.49 76.975C1165.63 80.5251 1160.82 82.8135 1160.82 82.0638C1160.82 81.3126 1161.94 79.7769 1163.3 78.6508C1164.66 77.5247 1166.79 74.6393 1168.04 72.2358C1169.29 69.834 1170.31 65.7705 1170.31 63.2064V58.5428L1165.34 54.3769C1162.61 52.0853 1159.89 50.7812 1159.3 51.4805C1158.71 52.1782 1155.66 56.4071 1152.52 60.8769C1149.38 65.3484 1145.34 71.8752 1143.55 75.3843C1141.75 78.8918 1140.28 83.4735 1140.28 85.5635V89.3655L1128.51 105.093C1122.04 113.743 1112.98 124.212 1108.37 128.356C1103.76 132.502 1097.7 136.853 1094.9 138.027C1092.11 139.202 1087.36 140.162 1084.35 140.162H1078.88L1076.39 137.677C1075.02 136.31 1073.11 133.735 1072.16 131.955L1070.42 128.717L1071.46 122.234C1072.03 118.668 1074.22 112.819 1076.33 109.236C1078.43 105.651 1083.87 99.6267 1088.39 95.8482L1096.63 88.9749L1091.46 96.0624L1086.28 103.15L1087.1 109.45L1087.91 115.75L1093.82 120.869C1097.07 123.685 1100.25 125.987 1100.89 125.987C1101.53 125.987 1102.78 123.908 1103.67 121.366C1104.55 118.824 1108.79 111.56 1113.07 105.223C1117.35 98.8848 1122.03 91.4319 1123.46 88.6599C1124.89 85.8864 1126.06 81.5535 1126.06 79.0288C1126.06 76.5025 1124.59 72.5697 1122.79 70.2876L1119.51 66.1374H1115.15C1112.76 66.1374 1107.46 67.8227 1103.37 69.8812L1095.95 73.6266L1098.95 68.7C1100.6 65.991 1106.31 56.7142 1111.64 48.0848L1121.32 32.3962V28.0287V23.6628L1116.98 19.0355C1114.58 16.4903 1111.1 13.9734 1109.24 13.4426L1105.84 12.4772L1096.47 30.251ZM435.358 24.0062C432.633 29.421 426.301 41.6462 421.287 51.1749C416.273 60.7037 403.916 84.2925 393.827 103.594C383.736 122.896 375.481 139.375 375.481 140.213V141.737H389.041H402.598L413.138 119.698L423.676 97.6595L431.972 97.6485L440.268 97.6374L440.217 101.181C440.191 103.129 439.138 111.812 437.879 120.475C436.619 129.137 435.575 137.464 435.558 138.981L435.528 141.737H449.008H462.49L463.217 139.769C463.617 138.687 466.437 110.916 469.487 78.0586C472.537 45.2009 475.032 17.3817 475.032 16.2398V14.1624H457.672H440.314L435.358 24.0062ZM512.145 16.1312C511.753 17.2148 503.958 42.5518 494.822 72.4374C485.685 102.323 478.206 128.403 478.202 130.394L478.192 134.012L482.293 137.802L486.395 141.589L493.558 142.66C497.499 143.249 506.531 143.369 513.63 142.928L526.54 142.125L533.157 138.761C536.796 136.912 540.996 133.536 542.491 131.262C543.986 128.988 552.883 102.241 562.265 71.8263C571.645 41.4099 579.321 15.9926 579.321 15.3437C579.323 14.6948 572.624 14.1624 564.439 14.1624H549.556L546.122 25.5812C544.234 31.8623 536.887 55.7062 529.797 78.5705L516.906 120.141L514.217 121.828C512.738 122.754 511.083 123.071 510.54 122.529C509.998 121.989 516.718 97.9981 525.475 69.2197C534.233 40.4397 541.399 16.2792 541.399 15.5279C541.399 14.7767 534.977 14.1624 527.128 14.1624H512.856L512.145 16.1312ZM585.999 24.0062L583.08 33.8499L592.004 34.6374L600.925 35.4249L585.406 85.8249C576.872 113.545 569.877 137.464 569.866 138.981L569.842 141.737H583.08H596.318L597.793 139.769C598.606 138.687 606.337 114.624 614.975 86.2959L630.678 34.7918L640.03 34.3208L649.38 33.8499L652.153 25.9749C653.678 21.6437 654.981 17.2148 655.048 16.1312L655.171 14.1624H622.044H588.918L585.999 24.0062ZM743.147 15.3437C742.763 15.9926 736.265 36.7243 728.71 61.4124C721.154 86.1006 712.618 113.879 709.739 123.143C706.861 132.407 704.902 140.38 705.384 140.862C705.867 141.344 717.464 141.737 731.155 141.737H756.047L758.775 133.469C760.276 128.92 761.831 124.315 762.232 123.231L762.96 121.262H751.73C745.553 121.262 740.5 120.93 740.5 120.524C740.5 120.119 747.284 97.6154 755.573 70.5175C763.864 43.4212 771.053 19.656 771.547 17.7062L772.446 14.1624H758.146C750.281 14.1624 743.532 14.6948 743.147 15.3437ZM799.959 31.8812C796.933 41.6273 788.989 67.4762 782.306 89.3246L770.158 129.049L771.187 133.133L772.216 137.216L778.874 140.23L785.535 143.243L797.704 143.278C804.396 143.297 813.64 142.516 818.246 141.542L826.619 139.77L832.15 133.981L837.68 128.191L854.667 73.0281C864.011 42.6872 871.654 17.0321 871.654 16.013V14.1624H856.984H842.312L825.82 67.8967L809.326 121.629L807.2 122.442C806.031 122.889 804.451 122.63 803.691 121.866L802.305 120.475L813.305 85.0374C819.353 65.5468 826.709 41.6273 829.648 31.8812L834.994 14.1624H820.229H805.462L799.959 31.8812ZM883.287 22.4312C883.801 26.9798 884.662 41.3312 885.198 54.3249L886.173 77.9499L865.615 108.662C854.307 125.554 845.594 139.936 846.253 140.621C846.912 141.306 853.784 141.66 861.527 141.408L875.604 140.95L882.715 130.067L889.826 119.183L890.29 130.46L890.755 141.737H905.604C913.77 141.737 920.834 141.123 921.3 140.372C921.764 139.621 921.333 125.148 920.34 108.209L918.534 77.4113L939.339 46.6011C950.781 29.6557 960.143 15.4256 960.143 14.9767C960.143 14.5294 953.085 14.1624 944.455 14.1624H928.769L922.728 24.0062L916.689 33.8499L916.218 24.0062L915.749 14.1624H899.049H882.352L883.287 22.4312ZM968.235 19.2812C967.336 22.0973 958.748 50.0173 949.15 81.3283C939.552 112.641 931.7 139.041 931.7 139.997V141.737H957.064H982.427L984.773 136.141C986.063 133.064 987.537 128.457 988.051 125.904L988.981 121.262H978.513H968.044L968.076 118.506C968.093 116.989 970.116 109.371 972.568 101.575L977.027 87.3999L986.363 86.6124L995.697 85.8249L998.336 77.9499C999.787 73.6187 1001.03 69.1898 1001.1 68.1062L1001.23 66.1374H992.537C987.757 66.1374 983.855 65.961 983.866 65.7437C983.879 65.5263 985.914 58.6168 988.392 50.3874L992.895 35.4249L1004.44 34.6374L1015.98 33.8499L1018.75 25.9749C1020.28 21.6437 1021.58 17.2148 1021.65 16.1312L1021.77 14.1624H995.82H969.869L968.235 19.2812ZM158.11 22.7666C151.973 23.8786 145.394 25.2788 143.493 25.8804L140.036 26.975V40.4523V53.9312L145.172 52.8255C147.995 52.216 152.826 51.345 155.906 50.8898L161.503 50.0598L166.757 37.2299C169.645 30.1739 172.358 23.5148 172.783 22.4312L173.558 20.4624L171.413 20.6042C170.235 20.6829 164.247 21.6563 158.11 22.7666ZM181.269 24.0062C180.525 25.956 178.012 32.056 175.686 37.5638C173.359 43.0715 171.674 47.7587 171.943 47.9792C172.21 48.1997 178.897 48.7793 186.804 49.266L201.177 50.1512L214.173 37.1306L227.168 24.1101L216.086 22.2863C209.992 21.283 199.969 20.4624 193.814 20.4624H182.622L181.269 24.0062ZM224.616 39.3199C217.734 46.2215 212.42 52.1152 212.807 52.4192C213.196 52.7216 216.714 53.8871 220.625 55.0085C224.536 56.1314 233.141 59.7587 239.748 63.0693L251.762 69.089L269.427 61.8582L287.093 54.6273L286.567 52.9011C286.276 51.9514 281.485 48.1682 275.919 44.4938C270.352 40.8177 260.791 35.7588 254.668 33.2514C248.546 30.7424 242.096 28.2587 240.334 27.7326L237.131 26.7734L224.616 39.3199ZM119.099 34.8989C113.232 37.6252 108.433 40.7201 108.433 41.7753C108.433 42.8321 110.277 47.8595 112.528 52.9484C114.782 58.0372 116.806 62.3858 117.026 62.6126C117.245 62.8394 120.734 61.5668 124.779 59.7823L132.135 56.5394V43.2259C132.135 35.9037 131.601 29.9187 130.95 29.9266C130.299 29.9345 124.966 32.1725 119.099 34.8989ZM695.476 36.6062C695.862 37.6898 690.682 56.5725 683.965 78.5689L671.752 118.563L669.068 120.251C667.591 121.179 665.88 121.436 665.263 120.821C664.647 120.207 669.712 101.451 676.519 79.1406C683.325 56.8292 689.571 37.6898 690.398 36.6062C691.226 35.5241 692.548 34.6374 693.338 34.6374C694.128 34.6374 695.091 35.5241 695.476 36.6062ZM93.3089 50.1244C89.8941 52.6145 85.8694 56.0354 84.3667 57.7285L81.6314 60.8045L89.3727 68.4039L97.1139 76.0032L102.772 72.5162C105.885 70.5994 108.433 68.1204 108.433 67.0068C108.433 65.8933 106.89 61.1667 105.007 56.5031C103.123 51.8411 101.116 47.4784 100.549 46.8106C99.9819 46.1428 96.7236 47.6343 93.3089 50.1244ZM446.086 62.2236L444.218 76.3749L438.914 76.8805L433.609 77.3877L434.173 75.9654C434.483 75.1842 437.519 68.396 440.917 60.8816C444.316 53.3673 447.289 47.4107 447.524 47.6453C447.76 47.88 447.112 54.4399 446.086 62.2236ZM278.301 67.0777C268.741 71.0373 260.563 74.6503 260.129 75.1055C259.694 75.5591 261.074 77.0947 263.196 78.5154C265.316 79.9376 278.116 83.6971 291.639 86.8707C305.16 90.0444 316.565 92.3045 316.979 91.8934C317.394 91.4823 315.62 87.2519 313.036 82.4907C310.452 77.731 305.491 70.6955 302.011 66.8572L295.683 59.8784L278.301 67.0777ZM70.8278 72.0437C69.1481 74.4267 66.6451 78.5768 65.2672 81.2685L62.7595 86.162L72.0398 90.153L81.3185 94.1441L86.0749 88.2426L90.8327 82.3426L83.3822 75.0267C79.2833 71.0042 75.4703 67.7124 74.9078 67.7124C74.3453 67.7124 72.5091 69.6607 70.8278 72.0437ZM185.071 84.5728C182.464 84.9256 174.642 86.7069 167.689 88.5355C160.736 90.3625 145.093 96.242 132.925 101.603L110.803 111.349L82.3599 113.965C66.7162 115.405 47.3117 117.941 39.2371 119.599C31.164 121.259 21.3733 124.154 17.4829 126.032C13.5925 127.909 9.6516 130.854 8.7272 132.576C7.8028 134.299 7.45517 136.115 7.9545 136.612C8.45383 137.11 10.1114 136.416 11.6379 135.067C13.1643 133.719 17.8147 131.479 21.9738 130.089C26.1328 128.7 30.3455 127.562 31.3347 127.562H33.1361L29.8967 131.106C28.1159 133.054 25.8594 136.198 24.8813 138.09C23.9031 139.983 23.1036 141.991 23.1036 142.555C23.1036 143.119 26.3666 140.717 30.3565 137.217L37.6095 130.854L46.5533 128.251L55.497 125.646L66.8695 126.362L78.242 127.079L86.2265 131.018C90.6178 133.184 94.2111 134.34 94.2111 133.587C94.2111 132.834 90.9276 130.142 86.9123 127.605L79.6151 122.992L83.357 122.116C85.4159 121.634 108.433 120.62 134.505 119.861L181.91 118.483L217.464 119.75C237.019 120.447 257.921 121.535 263.916 122.168L274.813 123.319L269.178 126.202C266.08 127.786 262.065 131.153 260.255 133.684C258.448 136.216 256.968 139.492 256.968 140.966V143.646L261.584 138.72C264.123 136.011 269.634 132.215 273.83 130.286L281.461 126.775L295.683 126.88L309.904 126.986L317.805 130.738C322.15 132.801 326.417 134.818 327.286 135.22C328.155 135.622 327.89 134.771 326.698 133.332C325.505 131.891 324.808 130.712 325.15 130.712C325.491 130.712 331.088 132.154 337.589 133.916C344.089 135.677 352.186 138.197 355.582 139.514L361.756 141.911L363.189 139.855L364.622 137.8L363.733 122.05C363.243 113.387 361.821 102.506 360.571 97.869C359.321 93.2306 358.02 89.1592 357.68 88.8206C357.341 88.482 350.763 90.3263 343.062 92.9203C335.364 95.5143 327.373 97.6374 325.306 97.6374C323.239 97.6374 307.42 94.4481 290.152 90.5499L258.757 83.4624L224.284 83.6987C205.324 83.8278 187.678 84.2216 185.071 84.5728ZM214.304 100.787V108.662H197.17C187.746 108.662 171.214 109.055 160.431 109.533L140.826 110.406L145.064 107.965C147.395 106.623 155.572 103.43 163.236 100.872C170.9 98.3131 181.792 95.5632 187.441 94.7615C193.09 93.9582 201.445 93.2133 206.008 93.1062L214.304 92.9124V100.787ZM267.069 96.201C273.246 98.0107 279.287 100.436 280.492 101.592L282.683 103.693L281.727 106.177L280.771 108.662H251.487H222.205V100.787V92.9124H239.021H255.837L267.069 96.201ZM1155.79 100.179C1152.91 104.175 1145.78 111.931 1139.96 117.413C1134.13 122.894 1127.79 128.216 1125.87 129.238L1122.39 131.097L1129.47 121.848C1133.36 116.761 1139.51 108.576 1143.12 103.657L1149.69 94.7158L1153.28 94.0291C1155.26 93.6511 1157.81 93.2448 1158.95 93.1266L1161.02 92.9124L1155.79 100.179ZM56.3977 103.273C55.3137 108.103 54.6659 112.279 54.9613 112.55C55.2553 112.82 59.2594 112.672 63.8593 112.22L72.2215 111.398L74.6423 106.735C75.9728 104.169 76.8182 101.825 76.518 101.528C76.2193 101.23 72.5518 99.5227 68.3706 97.7367C64.1879 95.949 60.2265 94.4874 59.5675 94.4874C58.9086 94.4874 57.4833 98.4407 56.3977 103.273ZM1010.13 124.527L1005.97 127.791V132.051C1005.97 134.395 1007.08 137.887 1008.43 139.811L1010.89 143.312H1016.87H1022.86L1025.48 140.432C1026.91 138.847 1028.09 135.356 1028.09 132.672V127.791L1023.93 124.527C1021.64 122.732 1018.53 121.262 1017.03 121.262C1015.53 121.262 1012.42 122.732 1010.13 124.527ZM222.205 131.908L199.292 134.272L154.006 134.461L108.72 134.65L111.064 138.587C112.351 140.753 114.35 143.805 115.505 145.371L117.604 148.217L160.818 144.916L204.033 141.615L221.415 137.734C230.975 135.6 241.464 133.114 244.722 132.209C247.982 131.305 250.648 130.243 250.648 129.851C250.648 129.459 249.404 129.229 247.883 129.341C246.361 129.452 234.807 130.607 222.205 131.908ZM1121.58 185.467L1123.56 187.442L1114.14 196.944L1104.73 206.446L1096.4 210.519L1088.06 214.592L1081.66 213.735C1078.13 213.265 1073.88 211.647 1072.21 210.14C1070.54 208.632 1069.17 206.056 1069.17 204.415C1069.17 202.773 1070.17 199.51 1071.39 197.162C1072.61 194.812 1076.57 191.229 1080.2 189.195C1083.83 187.164 1088.7 184.894 1091.02 184.152C1093.35 183.412 1100.73 182.96 1107.42 183.149L1119.6 183.492L1121.58 185.467ZM436.635 197.65L433.998 203.162H428.442C425.386 203.162 422.886 203.819 422.886 204.623C422.886 205.427 424.683 207.492 426.878 209.212L430.868 212.342L429.818 218.887L428.768 225.433L433.984 222.27L439.2 219.109L445.084 222.102L450.969 225.094L449.645 219.246L448.321 213.4L453.295 208.281L458.269 203.162H451.661H445.051L442.739 197.65C441.469 194.618 440.168 192.137 439.851 192.137C439.533 192.137 438.086 194.618 436.635 197.65ZM21.5787 198.334C20.6796 200.009 19.9432 205.538 19.9432 210.619V219.858L21.8394 221.748L23.7356 223.637H49.4924H75.2491V221.316V218.994L51.1516 218.56L27.054 218.125V210.25V202.375L51.1516 201.94L75.2491 201.506V198.397V195.287H49.2317H23.2142L21.5787 198.334ZM163.794 198.334C162.895 200.009 162.158 206.388 162.158 212.509V223.637H165.319H168.479V219.7V215.762H189.811H211.144V219.7V223.637H214.304H217.464V211.352V199.067L215.568 197.177L213.672 195.287H189.551H165.429L163.794 198.334ZM304.374 209.462V223.637H307.534H310.694V219.7V215.762H328.684H346.675L349.263 219.7L351.851 223.637H356.01H360.169L357.554 220.757C356.116 219.172 354.939 217.123 354.939 216.2C354.939 215.279 356.006 214.117 357.309 213.617L359.679 212.712V205.889C359.679 202.137 358.826 198.217 357.783 197.177L355.887 195.287H330.13H304.374V209.462ZM519.276 209.462V223.637H522.437H525.597V219.7V215.762H543.733H561.868L564.457 219.7L567.045 223.637H570.85H574.655L571.956 219.531L569.257 215.427L571.796 214.01C573.193 213.231 574.775 210.595 575.314 208.152C575.853 205.709 575.57 201.814 574.687 199.499L573.081 195.287H546.179H519.276V209.462ZM661.492 209.462V223.637H689.26H717.03L716.499 220.881L715.968 218.125L692.679 217.689L669.392 217.254V214.932V212.612H693.095H716.797V209.462V206.312H693.095H669.392V203.95V201.587H693.095H716.797V198.437V195.287H689.145H661.492V209.462ZM803.707 209.462V223.637H807.657H811.608V213.389V203.14L832.128 213.389C843.413 219.026 854.079 223.637 855.83 223.637H859.013V209.462V195.287H855.852H852.692V205.525C852.692 211.156 852.327 215.762 851.88 215.762C851.433 215.762 841.842 211.156 830.57 205.525C819.297 199.894 808.64 195.287 806.889 195.287H803.707V209.462ZM945.922 198.437V201.587H960.143H974.365V212.612V223.637H978.315H982.266V212.612V201.587H996.487H1010.71V198.437V195.287H978.315H945.922V198.437ZM211.144 205.525V209.462H190.695H170.246L169.222 207.812C168.659 206.905 168.596 205.133 169.08 203.874L169.96 201.587H190.552H211.144V205.525ZM353.359 205.525V209.462H332.026H310.694V205.525V201.587H332.026H353.359V205.525ZM568.262 205.571V209.554L547.324 209.114L526.387 208.675L525.882 205.131L525.377 201.587H546.819H568.262V205.571Z" fill="#828AA3"/>
</svg>
