<svg width="249" height="249" viewBox="0 0 249 249" fill="none" xmlns="http://www.w3.org/2000/svg">
<rect width="249" height="249" rx="56" fill="white"/>
<path fill-rule="evenodd" clip-rule="evenodd" d="M69.6027 202.21C69.5435 202.27 69.4834 202.33 69.4232 202.389L69.6027 202.21Z" fill="#3E7DFF"/>
<path d="M125.152 147.064C125.277 146.948 180.613 91.1811 202.161 69.6513C205.147 66.7236 207 62.6439 207 58.1313C207 49.2222 199.778 42 190.869 42C186.593 42 182.706 43.6634 179.819 46.3785C179.587 46.6106 179.35 46.8485 179.106 47.092C163.652 62.556 125.451 100.534 125.21 100.534C124.966 100.534 107.121 82.8765 99.5391 75.3435L99.3789 75.1844C96.4694 72.3331 92.4849 70.5754 88.0894 70.5754C79.1803 70.5754 71.9581 77.7976 71.9581 86.7067C71.9581 91.3386 73.9103 95.5145 77.0367 98.4565C91.07 112.492 125.029 147.178 125.152 147.064Z" fill="#3E7DFF"/>
<path d="M115.282 156.316C115.282 155.924 110.251 150.576 104.102 144.43C97.953 138.285 92.8149 133.257 92.6845 133.257C92.5562 133.257 59.8852 166.27 46.3897 179.807C43.668 182.695 42 186.587 42 190.869C42 199.778 49.2222 207 58.1313 207C62.528 207 66.5135 205.241 69.4232 202.389L69.6027 202.21C82.7149 189.153 115.282 156.707 115.282 156.316Z" fill="url(#paint0_linear_4140_25)"/>
<path d="M145.442 144.808L133.955 156.302L150.45 172.324C153.396 175.509 157.612 177.503 162.293 177.503C171.202 177.503 178.425 170.281 178.425 161.372C178.425 157.314 176.926 153.606 174.453 150.771C174.048 150.362 173.588 149.893 173.084 149.38C167.868 144.067 158.015 133.906 157.653 133.708L156.929 133.314L145.442 144.808Z" fill="url(#paint1_linear_4140_25)"/>
<defs>
<linearGradient id="paint0_linear_4140_25" x1="104" y1="143.5" x2="74.5" y2="185.5" gradientUnits="userSpaceOnUse">
<stop stop-color="#1058EE"/>
<stop offset="1" stop-color="#3E7DFF"/>
</linearGradient>
<linearGradient id="paint1_linear_4140_25" x1="143.5" y1="136.5" x2="167.5" y2="169" gradientUnits="userSpaceOnUse">
<stop stop-color="#1059EE"/>
<stop offset="1" stop-color="#3E7DFF"/>
</linearGradient>
</defs>
</svg>
