<svg width="178" height="178" viewBox="0 0 178 178" fill="none" xmlns="http://www.w3.org/2000/svg">
<rect x="3.5" y="3.5" width="171" height="171" rx="44.5" fill="#5C9DFF" fill-opacity="0.1"/>
<rect x="3.5" y="3.5" width="171" height="171" rx="44.5" stroke="#3D73FF" stroke-width="7"/>
<mask id="mask0_4141_1040" style="mask-type:alpha" maskUnits="userSpaceOnUse" x="0" y="15" width="178" height="155">
<path d="M178 15H0V170H178V15Z" fill="url(#paint0_radial_4141_1040)"/>
</mask>
<g mask="url(#mask0_4141_1040)">
<g opacity="0.9">
<path d="M28.2184 109.325H-12.1133V149.657H28.2184V109.325Z" stroke="#608CFF" stroke-width="2"/>
<path d="M28.2184 149.656H-12.1133V189.988H28.2184V149.656Z" stroke="#608CFF" stroke-width="2"/>
<path d="M28.2184 -11.6675H-12.1133V28.6642H28.2184V-11.6675Z" stroke="#608CFF" stroke-width="2"/>
<path d="M28.2184 28.6626H-12.1133V68.9943H28.2184V28.6626Z" stroke="#608CFF" stroke-width="2"/>
<path d="M28.2184 68.9937H-12.1133V109.325H28.2184V68.9937Z" stroke="#608CFF" stroke-width="2"/>
<path d="M68.5504 109.325H28.2188V149.657H68.5504V109.325Z" stroke="#608CFF" stroke-width="2"/>
<path d="M68.5504 149.656H28.2188V189.988H68.5504V149.656Z" stroke="#608CFF" stroke-width="2"/>
<path d="M68.5504 -11.6675H28.2188V28.6642H68.5504V-11.6675Z" stroke="#608CFF" stroke-width="2"/>
<path d="M68.5504 28.6626H28.2188V68.9943H68.5504V28.6626Z" stroke="#608CFF" stroke-width="2"/>
<path d="M68.5504 68.9937H28.2188V109.325H68.5504V68.9937Z" stroke="#608CFF" stroke-width="2"/>
<path d="M108.884 109.325H68.5527V149.657H108.884V109.325Z" stroke="#608CFF" stroke-width="2"/>
<path d="M108.884 149.656H68.5527V189.988H108.884V149.656Z" stroke="#608CFF" stroke-width="2"/>
<path d="M108.884 -11.6675H68.5527V28.6642H108.884V-11.6675Z" stroke="#608CFF" stroke-width="2"/>
<path d="M108.884 28.6626H68.5527V68.9943H108.884V28.6626Z" stroke="#608CFF" stroke-width="2"/>
<path d="M108.884 68.9937H68.5527V109.325H108.884V68.9937Z" stroke="#608CFF" stroke-width="2"/>
<path d="M149.213 109.325H108.881V149.657H149.213V109.325Z" stroke="#608CFF" stroke-width="2"/>
<path d="M149.213 149.656H108.881V189.988H149.213V149.656Z" stroke="#608CFF" stroke-width="2"/>
<path d="M149.213 -11.6675H108.881V28.6642H149.213V-11.6675Z" stroke="#608CFF" stroke-width="2"/>
<path d="M149.213 28.6626H108.881V68.9943H149.213V28.6626Z" stroke="#608CFF" stroke-width="2"/>
<path d="M149.213 68.9937H108.881V109.325H149.213V68.9937Z" stroke="#608CFF" stroke-width="2"/>
<path d="M189.547 109.325H149.215V149.657H189.547V109.325Z" stroke="#608CFF" stroke-width="2"/>
<path d="M189.547 149.656H149.215V189.988H189.547V149.656Z" stroke="#608CFF" stroke-width="2"/>
<path d="M189.547 -11.6675H149.215V28.6642H189.547V-11.6675Z" stroke="#608CFF" stroke-width="2"/>
<path d="M189.547 28.6626H149.215V68.9943H189.547V28.6626Z" stroke="#608CFF" stroke-width="2"/>
<path d="M189.547 68.9937H149.215V109.325H189.547V68.9937Z" stroke="#608CFF" stroke-width="2"/>
</g>
<path d="M15.7591 28.4907H-42.3262" stroke="url(#paint1_linear_4141_1040)" stroke-width="2"/>
<path d="M55.8743 149.872H-2.21094" stroke="url(#paint2_linear_4141_1040)" stroke-width="2"/>
<path d="M109.009 69.124H50.9238" stroke="url(#paint3_linear_4141_1040)" stroke-width="2"/>
<path d="M27.8906 63.1987V94.651V126.103" stroke="url(#paint4_linear_4141_1040)" stroke-width="2"/>
</g>
<path fill-rule="evenodd" clip-rule="evenodd" d="M107.024 74.0107L79.3604 101.969L47.8973 82.2904C43.3893 79.47 44.327 72.6226 49.426 71.1315L124.128 49.255C128.797 47.8865 133.124 52.252 131.737 56.9363L109.637 131.586C108.123 136.692 101.314 137.604 98.5205 133.077L79.3457 101.974" fill="#FDFEFF"/>
<path d="M107.024 74.0107L79.3604 101.969L47.8973 82.2904C43.3893 79.47 44.327 72.6226 49.426 71.1315L124.128 49.255C128.797 47.8865 133.124 52.252 131.737 56.9363L109.637 131.586C108.123 136.692 101.314 137.604 98.5205 133.077L79.3457 101.974" stroke="url(#paint5_linear_4141_1040)" stroke-width="7" stroke-linecap="round" stroke-linejoin="round"/>
<defs>
<radialGradient id="paint0_radial_4141_1040" cx="0" cy="0" r="1" gradientUnits="userSpaceOnUse" gradientTransform="translate(89 92.5) rotate(90) scale(77.5 89)">
<stop stop-color="#3D7FFF"/>
<stop offset="1" stop-color="white" stop-opacity="0"/>
</radialGradient>
<linearGradient id="paint1_linear_4141_1040" x1="nan" y1="nan" x2="nan" y2="nan" gradientUnits="userSpaceOnUse">
<stop stop-color="white" stop-opacity="0"/>
<stop offset="0.510417" stop-color="white"/>
<stop offset="1" stop-color="white" stop-opacity="0"/>
</linearGradient>
<linearGradient id="paint2_linear_4141_1040" x1="nan" y1="nan" x2="nan" y2="nan" gradientUnits="userSpaceOnUse">
<stop stop-color="white" stop-opacity="0"/>
<stop offset="0.510417" stop-color="white"/>
<stop offset="1" stop-color="white" stop-opacity="0"/>
</linearGradient>
<linearGradient id="paint3_linear_4141_1040" x1="nan" y1="nan" x2="nan" y2="nan" gradientUnits="userSpaceOnUse">
<stop stop-color="white" stop-opacity="0"/>
<stop offset="0.510417" stop-color="white"/>
<stop offset="1" stop-color="white" stop-opacity="0"/>
</linearGradient>
<linearGradient id="paint4_linear_4141_1040" x1="nan" y1="nan" x2="nan" y2="nan" gradientUnits="userSpaceOnUse">
<stop stop-color="white" stop-opacity="0"/>
<stop offset="0.510417" stop-color="white"/>
<stop offset="1" stop-color="white" stop-opacity="0"/>
</linearGradient>
<linearGradient id="paint5_linear_4141_1040" x1="88.5" y1="49" x2="88.5" y2="136" gradientUnits="userSpaceOnUse">
<stop stop-color="#3D73FF"/>
<stop offset="1" stop-color="#0345F3"/>
</linearGradient>
</defs>
</svg>
