<svg width="178" height="178" viewBox="0 0 178 178" fill="none" xmlns="http://www.w3.org/2000/svg">
<rect x="3.5" y="3.5" width="171" height="171" rx="44.5" fill="#5C9DFF" fill-opacity="0.1"/>
<rect x="3.5" y="3.5" width="171" height="171" rx="44.5" stroke="#3D73FF" stroke-width="7"/>
<mask id="mask0_4141_801" style="mask-type:alpha" maskUnits="userSpaceOnUse" x="0" y="15" width="178" height="155">
<path d="M178 15H0V170H178V15Z" fill="url(#paint0_radial_4141_801)" fill-opacity="0.2"/>
</mask>
<g mask="url(#mask0_4141_801)">
<g opacity="0.9">
<path d="M28.2184 109.326H-12.1133V149.657H28.2184V109.326Z" fill="url(#paint1_radial_4141_801)" fill-opacity="0.2" stroke="#608CFF" stroke-width="2"/>
<path d="M28.2184 149.657H-12.1133V189.988H28.2184V149.657Z" fill="url(#paint2_radial_4141_801)" fill-opacity="0.2" stroke="#608CFF" stroke-width="2"/>
<path d="M28.2184 -11.6675H-12.1133V28.6642H28.2184V-11.6675Z" fill="url(#paint3_radial_4141_801)" fill-opacity="0.2" stroke="#608CFF" stroke-width="2"/>
<path d="M28.2184 28.6626H-12.1133V68.9943H28.2184V28.6626Z" fill="url(#paint4_radial_4141_801)" fill-opacity="0.2" stroke="#608CFF" stroke-width="2"/>
<path d="M28.2184 68.9937H-12.1133V109.325H28.2184V68.9937Z" fill="url(#paint5_radial_4141_801)" fill-opacity="0.2" stroke="#608CFF" stroke-width="2"/>
<path d="M68.5504 109.326H28.2188V149.657H68.5504V109.326Z" fill="url(#paint6_radial_4141_801)" fill-opacity="0.2" stroke="#608CFF" stroke-width="2"/>
<path d="M68.5504 149.657H28.2188V189.988H68.5504V149.657Z" fill="url(#paint7_radial_4141_801)" fill-opacity="0.2" stroke="#608CFF" stroke-width="2"/>
<path d="M68.5504 -11.6675H28.2188V28.6642H68.5504V-11.6675Z" fill="url(#paint8_radial_4141_801)" fill-opacity="0.2" stroke="#608CFF" stroke-width="2"/>
<path d="M68.5504 28.6626H28.2188V68.9943H68.5504V28.6626Z" fill="url(#paint9_radial_4141_801)" fill-opacity="0.2" stroke="#608CFF" stroke-width="2"/>
<path d="M68.5504 68.9937H28.2188V109.325H68.5504V68.9937Z" fill="url(#paint10_radial_4141_801)" fill-opacity="0.2" stroke="#608CFF" stroke-width="2"/>
<path d="M108.884 109.326H68.5527V149.657H108.884V109.326Z" fill="url(#paint11_radial_4141_801)" fill-opacity="0.2" stroke="#608CFF" stroke-width="2"/>
<path d="M108.884 149.657H68.5527V189.988H108.884V149.657Z" fill="url(#paint12_radial_4141_801)" fill-opacity="0.2" stroke="#608CFF" stroke-width="2"/>
<path d="M108.884 -11.6675H68.5527V28.6642H108.884V-11.6675Z" fill="url(#paint13_radial_4141_801)" fill-opacity="0.2" stroke="#608CFF" stroke-width="2"/>
<path d="M108.884 28.6626H68.5527V68.9943H108.884V28.6626Z" fill="url(#paint14_radial_4141_801)" fill-opacity="0.2" stroke="#608CFF" stroke-width="2"/>
<path d="M108.884 68.9937H68.5527V109.325H108.884V68.9937Z" fill="url(#paint15_radial_4141_801)" fill-opacity="0.2" stroke="#608CFF" stroke-width="2"/>
<path d="M149.213 109.326H108.881V149.657H149.213V109.326Z" fill="url(#paint16_radial_4141_801)" fill-opacity="0.2" stroke="#608CFF" stroke-width="2"/>
<path d="M149.213 149.657H108.881V189.988H149.213V149.657Z" fill="url(#paint17_radial_4141_801)" fill-opacity="0.2" stroke="#608CFF" stroke-width="2"/>
<path d="M149.213 -11.6675H108.881V28.6642H149.213V-11.6675Z" fill="url(#paint18_radial_4141_801)" fill-opacity="0.2" stroke="#608CFF" stroke-width="2"/>
<path d="M149.213 28.6626H108.881V68.9943H149.213V28.6626Z" fill="url(#paint19_radial_4141_801)" fill-opacity="0.2" stroke="#608CFF" stroke-width="2"/>
<path d="M149.213 68.9937H108.881V109.325H149.213V68.9937Z" fill="url(#paint20_radial_4141_801)" fill-opacity="0.2" stroke="#608CFF" stroke-width="2"/>
<path d="M189.547 109.326H149.215V149.657H189.547V109.326Z" fill="url(#paint21_radial_4141_801)" fill-opacity="0.2" stroke="#608CFF" stroke-width="2"/>
<path d="M189.547 149.657H149.215V189.988H189.547V149.657Z" fill="url(#paint22_radial_4141_801)" fill-opacity="0.2" stroke="#608CFF" stroke-width="2"/>
<path d="M189.547 -11.6675H149.215V28.6642H189.547V-11.6675Z" fill="url(#paint23_radial_4141_801)" fill-opacity="0.2" stroke="#608CFF" stroke-width="2"/>
<path d="M189.547 28.6626H149.215V68.9943H189.547V28.6626Z" fill="url(#paint24_radial_4141_801)" fill-opacity="0.2" stroke="#608CFF" stroke-width="2"/>
<path d="M189.547 68.9937H149.215V109.325H189.547V68.9937Z" fill="url(#paint25_radial_4141_801)" fill-opacity="0.2" stroke="#608CFF" stroke-width="2"/>
</g>
<path d="M15.7591 28.4907H-42.3262Z" fill="url(#paint26_radial_4141_801)" fill-opacity="0.2"/>
<path d="M15.7591 28.4907H-42.3262" stroke="url(#paint27_linear_4141_801)" stroke-width="2"/>
<path d="M55.8743 149.872H-2.21094Z" fill="url(#paint28_radial_4141_801)" fill-opacity="0.2"/>
<path d="M55.8743 149.872H-2.21094" stroke="url(#paint29_linear_4141_801)" stroke-width="2"/>
<path d="M109.009 69.124H50.9238Z" fill="url(#paint30_radial_4141_801)" fill-opacity="0.2"/>
<path d="M109.009 69.124H50.9238" stroke="url(#paint31_linear_4141_801)" stroke-width="2"/>
<path d="M27.8906 63.1987V94.651V126.103" fill="url(#paint32_radial_4141_801)" fill-opacity="0.2"/>
<path d="M27.8906 63.1987V94.651V126.103" stroke="url(#paint33_linear_4141_801)" stroke-width="2"/>
</g>
<path fill-rule="evenodd" clip-rule="evenodd" d="M53.7326 138.923C53.6946 138.961 53.656 139 53.6173 139.038L53.7326 138.923Z" fill="#3E7DFF"/>
<path d="M89.4187 103.496C89.4992 103.421 125.048 67.5951 138.891 53.7639C140.81 51.8831 142 49.2621 142 46.3631C142 40.6397 137.36 36 131.637 36C128.89 36 126.393 37.0686 124.538 38.8128C124.389 38.962 124.237 39.1148 124.08 39.2712C114.152 49.2057 89.6108 73.6034 89.456 73.6034C89.2996 73.6034 77.8352 62.2601 72.9645 57.4207L72.8616 57.3184C70.9925 55.4867 68.4327 54.3575 65.6089 54.3575C59.8855 54.3575 55.2458 58.9973 55.2458 64.7207C55.2458 67.6963 56.4999 70.379 58.5084 72.269C67.5237 81.2857 89.3397 103.569 89.4187 103.496Z" fill="#3E7DFF"/>
<path d="M83.0782 109.44C83.0782 109.188 79.8461 105.752 75.8957 101.803C71.9455 97.8557 68.6447 94.6257 68.5609 94.6257C68.4785 94.6257 47.4899 115.834 38.8201 124.531C37.0716 126.386 36 128.886 36 131.637C36 137.36 40.6397 142 46.3631 142C49.1877 142 51.748 140.87 53.6173 139.038L53.7326 138.923C62.1562 130.535 83.0782 109.69 83.0782 109.44Z" fill="url(#paint34_linear_4141_801)"/>
<path d="M102.454 102.046L95.074 109.43L105.671 119.723C107.564 121.769 110.272 123.05 113.279 123.05C119.003 123.05 123.642 118.411 123.642 112.687C123.642 110.08 122.68 107.698 121.091 105.877C120.831 105.614 120.535 105.313 120.211 104.984C116.86 101.57 110.531 95.0424 110.298 94.9153L109.833 94.6621L102.454 102.046Z" fill="url(#paint35_linear_4141_801)"/>
<defs>
<radialGradient id="paint0_radial_4141_801" cx="0" cy="0" r="1" gradientUnits="userSpaceOnUse" gradientTransform="translate(89 92.5) rotate(90) scale(77.5 89)">
<stop stop-color="#3D7FFF"/>
<stop offset="1" stop-color="white" stop-opacity="0"/>
</radialGradient>
<radialGradient id="paint1_radial_4141_801" cx="0" cy="0" r="1" gradientUnits="userSpaceOnUse" gradientTransform="translate(8.05257 129.492) rotate(90) scale(20.1658 20.1658)">
<stop stop-color="#3D7FFF"/>
<stop offset="1" stop-color="white" stop-opacity="0"/>
</radialGradient>
<radialGradient id="paint2_radial_4141_801" cx="0" cy="0" r="1" gradientUnits="userSpaceOnUse" gradientTransform="translate(8.05257 169.823) rotate(90) scale(20.1658)">
<stop stop-color="#3D7FFF"/>
<stop offset="1" stop-color="white" stop-opacity="0"/>
</radialGradient>
<radialGradient id="paint3_radial_4141_801" cx="0" cy="0" r="1" gradientUnits="userSpaceOnUse" gradientTransform="translate(8.05257 8.49837) rotate(90) scale(20.1658 20.1658)">
<stop stop-color="#3D7FFF"/>
<stop offset="1" stop-color="white" stop-opacity="0"/>
</radialGradient>
<radialGradient id="paint4_radial_4141_801" cx="0" cy="0" r="1" gradientUnits="userSpaceOnUse" gradientTransform="translate(8.05257 48.8284) rotate(90) scale(20.1658 20.1658)">
<stop stop-color="#3D7FFF"/>
<stop offset="1" stop-color="white" stop-opacity="0"/>
</radialGradient>
<radialGradient id="paint5_radial_4141_801" cx="0" cy="0" r="1" gradientUnits="userSpaceOnUse" gradientTransform="translate(8.05257 89.1595) rotate(90) scale(20.1658 20.1658)">
<stop stop-color="#3D7FFF"/>
<stop offset="1" stop-color="white" stop-opacity="0"/>
</radialGradient>
<radialGradient id="paint6_radial_4141_801" cx="0" cy="0" r="1" gradientUnits="userSpaceOnUse" gradientTransform="translate(48.3846 129.492) rotate(90) scale(20.1658 20.1658)">
<stop stop-color="#3D7FFF"/>
<stop offset="1" stop-color="white" stop-opacity="0"/>
</radialGradient>
<radialGradient id="paint7_radial_4141_801" cx="0" cy="0" r="1" gradientUnits="userSpaceOnUse" gradientTransform="translate(48.3846 169.823) rotate(90) scale(20.1658)">
<stop stop-color="#3D7FFF"/>
<stop offset="1" stop-color="white" stop-opacity="0"/>
</radialGradient>
<radialGradient id="paint8_radial_4141_801" cx="0" cy="0" r="1" gradientUnits="userSpaceOnUse" gradientTransform="translate(48.3846 8.49837) rotate(90) scale(20.1658 20.1658)">
<stop stop-color="#3D7FFF"/>
<stop offset="1" stop-color="white" stop-opacity="0"/>
</radialGradient>
<radialGradient id="paint9_radial_4141_801" cx="0" cy="0" r="1" gradientUnits="userSpaceOnUse" gradientTransform="translate(48.3846 48.8284) rotate(90) scale(20.1658 20.1658)">
<stop stop-color="#3D7FFF"/>
<stop offset="1" stop-color="white" stop-opacity="0"/>
</radialGradient>
<radialGradient id="paint10_radial_4141_801" cx="0" cy="0" r="1" gradientUnits="userSpaceOnUse" gradientTransform="translate(48.3846 89.1595) rotate(90) scale(20.1658 20.1658)">
<stop stop-color="#3D7FFF"/>
<stop offset="1" stop-color="white" stop-opacity="0"/>
</radialGradient>
<radialGradient id="paint11_radial_4141_801" cx="0" cy="0" r="1" gradientUnits="userSpaceOnUse" gradientTransform="translate(88.7186 129.492) rotate(90) scale(20.1658 20.1658)">
<stop stop-color="#3D7FFF"/>
<stop offset="1" stop-color="white" stop-opacity="0"/>
</radialGradient>
<radialGradient id="paint12_radial_4141_801" cx="0" cy="0" r="1" gradientUnits="userSpaceOnUse" gradientTransform="translate(88.7186 169.823) rotate(90) scale(20.1658)">
<stop stop-color="#3D7FFF"/>
<stop offset="1" stop-color="white" stop-opacity="0"/>
</radialGradient>
<radialGradient id="paint13_radial_4141_801" cx="0" cy="0" r="1" gradientUnits="userSpaceOnUse" gradientTransform="translate(88.7186 8.49837) rotate(90) scale(20.1658 20.1658)">
<stop stop-color="#3D7FFF"/>
<stop offset="1" stop-color="white" stop-opacity="0"/>
</radialGradient>
<radialGradient id="paint14_radial_4141_801" cx="0" cy="0" r="1" gradientUnits="userSpaceOnUse" gradientTransform="translate(88.7186 48.8284) rotate(90) scale(20.1658 20.1658)">
<stop stop-color="#3D7FFF"/>
<stop offset="1" stop-color="white" stop-opacity="0"/>
</radialGradient>
<radialGradient id="paint15_radial_4141_801" cx="0" cy="0" r="1" gradientUnits="userSpaceOnUse" gradientTransform="translate(88.7186 89.1595) rotate(90) scale(20.1658 20.1658)">
<stop stop-color="#3D7FFF"/>
<stop offset="1" stop-color="white" stop-opacity="0"/>
</radialGradient>
<radialGradient id="paint16_radial_4141_801" cx="0" cy="0" r="1" gradientUnits="userSpaceOnUse" gradientTransform="translate(129.047 129.492) rotate(90) scale(20.1658 20.1658)">
<stop stop-color="#3D7FFF"/>
<stop offset="1" stop-color="white" stop-opacity="0"/>
</radialGradient>
<radialGradient id="paint17_radial_4141_801" cx="0" cy="0" r="1" gradientUnits="userSpaceOnUse" gradientTransform="translate(129.047 169.823) rotate(90) scale(20.1658)">
<stop stop-color="#3D7FFF"/>
<stop offset="1" stop-color="white" stop-opacity="0"/>
</radialGradient>
<radialGradient id="paint18_radial_4141_801" cx="0" cy="0" r="1" gradientUnits="userSpaceOnUse" gradientTransform="translate(129.047 8.49837) rotate(90) scale(20.1658 20.1658)">
<stop stop-color="#3D7FFF"/>
<stop offset="1" stop-color="white" stop-opacity="0"/>
</radialGradient>
<radialGradient id="paint19_radial_4141_801" cx="0" cy="0" r="1" gradientUnits="userSpaceOnUse" gradientTransform="translate(129.047 48.8284) rotate(90) scale(20.1658 20.1658)">
<stop stop-color="#3D7FFF"/>
<stop offset="1" stop-color="white" stop-opacity="0"/>
</radialGradient>
<radialGradient id="paint20_radial_4141_801" cx="0" cy="0" r="1" gradientUnits="userSpaceOnUse" gradientTransform="translate(129.047 89.1595) rotate(90) scale(20.1658 20.1658)">
<stop stop-color="#3D7FFF"/>
<stop offset="1" stop-color="white" stop-opacity="0"/>
</radialGradient>
<radialGradient id="paint21_radial_4141_801" cx="0" cy="0" r="1" gradientUnits="userSpaceOnUse" gradientTransform="translate(169.381 129.492) rotate(90) scale(20.1658 20.1658)">
<stop stop-color="#3D7FFF"/>
<stop offset="1" stop-color="white" stop-opacity="0"/>
</radialGradient>
<radialGradient id="paint22_radial_4141_801" cx="0" cy="0" r="1" gradientUnits="userSpaceOnUse" gradientTransform="translate(169.381 169.823) rotate(90) scale(20.1658)">
<stop stop-color="#3D7FFF"/>
<stop offset="1" stop-color="white" stop-opacity="0"/>
</radialGradient>
<radialGradient id="paint23_radial_4141_801" cx="0" cy="0" r="1" gradientUnits="userSpaceOnUse" gradientTransform="translate(169.381 8.49837) rotate(90) scale(20.1658 20.1658)">
<stop stop-color="#3D7FFF"/>
<stop offset="1" stop-color="white" stop-opacity="0"/>
</radialGradient>
<radialGradient id="paint24_radial_4141_801" cx="0" cy="0" r="1" gradientUnits="userSpaceOnUse" gradientTransform="translate(169.381 48.8284) rotate(90) scale(20.1658 20.1658)">
<stop stop-color="#3D7FFF"/>
<stop offset="1" stop-color="white" stop-opacity="0"/>
</radialGradient>
<radialGradient id="paint25_radial_4141_801" cx="0" cy="0" r="1" gradientUnits="userSpaceOnUse" gradientTransform="translate(169.381 89.1595) rotate(90) scale(20.1658 20.1658)">
<stop stop-color="#3D7FFF"/>
<stop offset="1" stop-color="white" stop-opacity="0"/>
</radialGradient>
<radialGradient id="paint26_radial_4141_801" cx="0" cy="0" r="1" gradientUnits="userSpaceOnUse" gradientTransform="translate(-13.2835 28.9907) rotate(90) scale(0.5 29.0426)">
<stop stop-color="#3D7FFF"/>
<stop offset="1" stop-color="white" stop-opacity="0"/>
</radialGradient>
<linearGradient id="paint27_linear_4141_801" x1="nan" y1="nan" x2="nan" y2="nan" gradientUnits="userSpaceOnUse">
<stop stop-color="white" stop-opacity="0"/>
<stop offset="0.510417" stop-color="white"/>
<stop offset="1" stop-color="white" stop-opacity="0"/>
</linearGradient>
<radialGradient id="paint28_radial_4141_801" cx="0" cy="0" r="1" gradientUnits="userSpaceOnUse" gradientTransform="translate(26.8317 150.372) rotate(90) scale(0.5 29.0426)">
<stop stop-color="#3D7FFF"/>
<stop offset="1" stop-color="white" stop-opacity="0"/>
</radialGradient>
<linearGradient id="paint29_linear_4141_801" x1="nan" y1="nan" x2="nan" y2="nan" gradientUnits="userSpaceOnUse">
<stop stop-color="white" stop-opacity="0"/>
<stop offset="0.510417" stop-color="white"/>
<stop offset="1" stop-color="white" stop-opacity="0"/>
</linearGradient>
<radialGradient id="paint30_radial_4141_801" cx="0" cy="0" r="1" gradientUnits="userSpaceOnUse" gradientTransform="translate(79.9665 69.624) rotate(90) scale(0.5 29.0426)">
<stop stop-color="#3D7FFF"/>
<stop offset="1" stop-color="white" stop-opacity="0"/>
</radialGradient>
<linearGradient id="paint31_linear_4141_801" x1="nan" y1="nan" x2="nan" y2="nan" gradientUnits="userSpaceOnUse">
<stop stop-color="white" stop-opacity="0"/>
<stop offset="0.510417" stop-color="white"/>
<stop offset="1" stop-color="white" stop-opacity="0"/>
</linearGradient>
<radialGradient id="paint32_radial_4141_801" cx="0" cy="0" r="1" gradientUnits="userSpaceOnUse" gradientTransform="translate(28.3906 94.6506) rotate(90) scale(31.4519 0.5)">
<stop stop-color="#3D7FFF"/>
<stop offset="1" stop-color="white" stop-opacity="0"/>
</radialGradient>
<linearGradient id="paint33_linear_4141_801" x1="nan" y1="nan" x2="nan" y2="nan" gradientUnits="userSpaceOnUse">
<stop stop-color="white" stop-opacity="0"/>
<stop offset="0.510417" stop-color="white"/>
<stop offset="1" stop-color="white" stop-opacity="0"/>
</linearGradient>
<linearGradient id="paint34_linear_4141_801" x1="75.8303" y1="101.206" x2="56.8788" y2="128.188" gradientUnits="userSpaceOnUse">
<stop stop-color="#1058EE"/>
<stop offset="1" stop-color="#3E7DFF"/>
</linearGradient>
<linearGradient id="paint35_linear_4141_801" x1="101.206" y1="96.7091" x2="116.624" y2="117.588" gradientUnits="userSpaceOnUse">
<stop stop-color="#1059EE"/>
<stop offset="1" stop-color="#3E7DFF"/>
</linearGradient>
</defs>
</svg>
