<svg width="1747" height="226" viewBox="0 0 1747 226" fill="none" xmlns="http://www.w3.org/2000/svg">
<path fill-rule="evenodd" clip-rule="evenodd" d="M210.851 0.263166C210.485 0.457246 206.569 0.777572 202.149 0.975891C197.73 1.17421 192.731 1.40456 191.041 1.48747C189.351 1.57085 184.139 2.08478 179.459 2.6298C174.779 3.17483 169.886 3.709 168.586 3.81687C167.286 3.92475 161.756 4.75244 156.296 5.65594C150.836 6.55945 142.327 8.16862 137.387 9.23182C132.447 10.2955 126.967 11.4722 125.209 11.8476C123.45 12.2231 120.898 12.8275 119.536 13.1902C118.174 13.5534 113.763 14.8342 109.733 16.0359C105.703 17.2381 101.661 18.4105 100.751 18.6418C99.8409 18.8736 95.3737 20.4512 90.8238 22.1485C86.2739 23.8457 81.913 25.5312 81.133 25.8939C80.353 26.2566 75.1413 28.7934 69.5514 31.5317C63.9615 34.27 58.2179 37.1854 56.7879 38.0107C55.3579 38.836 53.0161 40.2737 51.5837 41.2055C50.1514 42.1368 48.3962 43.2 47.6838 43.5674C46.9709 43.9349 46.3881 44.4121 46.3881 44.6273C46.3881 44.8426 46.1526 45.0188 45.8652 45.0188C45.5778 45.0188 44.674 45.552 43.8562 46.2035C43.0388 46.855 42.1572 47.5456 41.8972 47.7383C41.6372 47.9305 40.8927 48.4331 40.2427 48.8547C39.5927 49.2758 38.6019 50.0163 38.0412 50.4997C37.4806 50.983 36.5569 51.6962 35.9882 52.0848C35.4195 52.4734 34.4958 53.1786 33.9352 53.6521C33.3745 54.1255 31.8803 55.3974 30.6143 56.4785C29.3489 57.5596 27.7444 58.9742 27.0491 59.6219C26.3537 60.2696 25.1553 61.3385 24.3867 61.9975C23.6176 62.656 21.6062 64.7758 19.9171 66.7082C18.2276 68.64 16.6932 70.4329 16.5065 70.692C16.3197 70.951 15.5743 71.905 14.8505 72.8118C14.1263 73.7186 13.0556 75.1407 12.4704 75.9726C11.8856 76.8041 11.4067 77.7047 11.4067 77.9747C11.4067 78.2441 11.2446 78.4646 11.0461 78.4646C10.848 78.4646 10.4755 78.8588 10.2188 79.3407C9.96211 79.8226 8.86067 81.9957 7.77058 84.1692C6.68096 86.3432 5.04251 90.0731 4.13063 92.4581C3.21828 94.8431 2.1367 98.4114 1.72732 100.388C1.31747 102.364 0.76155 106.169 0.491154 108.843L0 113.707L0.502972 119.09C0.779514 122.051 1.42998 126.152 1.94902 128.202C2.4676 130.253 3.23908 132.779 3.66358 133.815C4.08761 134.851 5.30534 137.501 6.36944 139.703C7.43306 141.906 9.67139 145.827 11.3429 148.418C13.0145 151.009 14.5111 153.235 14.6685 153.364C14.8255 153.494 16.1609 155.084 17.6358 156.897C19.1107 158.711 22.7265 162.528 25.6711 165.38C28.6157 168.233 32.1133 171.518 33.4436 172.682C34.7738 173.846 36.4576 175.222 37.1851 175.74C37.9127 176.258 38.7385 176.902 39.0207 177.17C39.3029 177.438 40.4909 178.315 41.6609 179.118C42.8308 179.922 45.9153 181.946 48.5153 183.617C51.1153 185.288 53.5616 186.798 53.9516 186.974C54.3416 187.15 55.7243 187.922 57.0243 188.691C58.3243 189.46 62.5787 191.663 66.4787 193.586C70.3786 195.509 75.9095 198.078 78.7694 199.294C81.6294 200.51 85.1393 201.924 86.5693 202.435C87.9993 202.946 89.5947 203.551 90.1147 203.78C90.6347 204.008 94.5701 205.354 98.86 206.771C103.15 208.188 110.17 210.291 114.46 211.445C118.75 212.599 124.493 214.088 127.223 214.754C129.953 215.419 135.165 216.598 138.805 217.373C142.445 218.148 147.869 219.205 150.859 219.722C153.849 220.239 157.466 220.804 158.896 220.977C160.326 221.149 161.623 221.368 161.778 221.463C161.934 221.558 164.057 221.768 166.496 221.93C168.936 222.092 171.28 222.41 171.706 222.636C172.132 222.863 172.596 222.933 172.738 222.792C172.881 222.65 174.663 222.791 176.701 223.105C178.738 223.419 181.149 223.65 182.059 223.619C182.969 223.589 185.414 223.774 187.493 224.031C189.572 224.288 194.784 224.608 199.075 224.743C203.366 224.878 208.578 225.216 210.658 225.494L214.44 226L222.24 225.772C226.53 225.646 233.763 225.318 238.313 225.044C242.863 224.769 249.563 224.299 253.203 224.001C256.843 223.702 261.842 223.274 264.312 223.05C266.782 222.826 270.824 222.409 273.294 222.123C275.764 221.836 281.188 221.074 285.348 220.429C289.508 219.783 296.954 218.406 301.893 217.369C306.833 216.331 312.896 214.976 315.366 214.356C317.836 213.736 323.26 212.259 327.42 211.073C331.58 209.887 336.154 208.487 337.584 207.961C339.014 207.436 341.779 206.514 343.729 205.912C345.679 205.311 348.764 204.249 350.584 203.553C352.404 202.856 354.425 202.116 355.075 201.908C355.725 201.7 358.315 200.673 360.832 199.624C363.348 198.576 366.858 197.047 368.632 196.226C370.405 195.405 373.664 193.835 375.874 192.736C378.084 191.638 381.381 189.921 383.201 188.923C385.021 187.925 388.85 185.645 391.71 183.856C394.57 182.069 397.761 179.983 398.801 179.222C399.841 178.46 402.37 176.581 404.421 175.046C406.473 173.51 409.759 170.812 411.724 169.05C413.689 167.289 416.159 164.995 417.213 163.953C418.266 162.911 420.464 160.58 422.097 158.771C423.73 156.963 426.446 153.576 428.133 151.244C429.82 148.913 432.666 144.037 434.459 140.41C436.251 136.783 438.158 132.331 438.696 130.518C439.235 128.704 439.998 125.669 440.393 123.774L441.11 120.328L441.099 112.469L441.089 104.609L440.2 100.605C439.71 98.4025 438.848 95.2228 438.284 93.5387C437.719 91.8547 436.23 88.357 434.974 85.7661C433.719 83.1752 431.433 79.1476 429.895 76.8158C428.358 74.484 426.795 72.2583 426.423 71.8696C426.051 71.481 425.136 70.349 424.39 69.3536C423.643 68.3583 420.559 65.0641 417.535 62.0333C414.511 59.002 410.655 55.346 408.965 53.9083C407.275 52.4706 403.81 49.7596 401.265 47.8843C398.72 46.009 394.343 43.0234 391.539 41.2498C388.735 39.4762 384.861 37.1642 382.93 36.1123C381 35.06 378.356 33.6792 377.056 33.0438C375.756 32.4088 372.794 31.0031 370.473 29.9211C368.152 28.8386 364.748 27.325 362.909 26.5577C361.07 25.7903 355.985 23.8137 351.608 22.1649C347.231 20.5167 342.977 19.0243 342.154 18.8491C341.33 18.6739 340.444 18.3799 340.184 18.1962C339.924 18.0125 338.328 17.4774 336.638 17.0068C334.948 16.5362 332.669 15.8682 331.573 15.522C330.477 15.1757 326.435 14.0631 322.591 13.0493C318.747 12.0356 313.776 10.7637 311.545 10.2225C309.313 9.68167 304.207 8.58927 300.199 7.79458C296.191 7.00036 289.618 5.81985 285.593 5.17119C281.567 4.523 276.583 3.88519 274.517 3.75376C272.451 3.62281 270.622 3.43061 270.454 3.32697C270.286 3.22334 269.1 3.0255 267.821 2.88747C266.541 2.74898 263.154 2.40744 260.294 2.12763C257.434 1.84828 253.605 1.52421 251.785 1.40786C249.965 1.29103 244.541 0.953739 239.731 0.657438C234.921 0.361607 226.605 0.0723657 221.251 0.0148955C215.898 -0.0421036 211.218 0.0695575 210.851 0.263166ZM246.533 20.0659C250.924 20.3254 257.731 20.8634 261.66 21.2619C265.589 21.66 271.781 22.3977 275.421 22.9017C279.061 23.4058 283.422 24.0483 285.112 24.33C286.802 24.6112 292.12 25.5778 296.93 26.478C301.74 27.3778 306.952 28.4396 308.512 28.8376C310.072 29.2352 312.412 29.7444 313.712 29.9682C315.011 30.1924 316.501 30.4831 317.021 30.6145C317.541 30.7454 319.561 31.2942 321.511 31.8341C323.461 32.3739 325.695 32.9303 326.475 33.0702C327.255 33.2101 329.697 33.9374 331.903 34.6864C334.109 35.4359 336.449 36.4449 337.103 36.9296L338.293 37.8105L338.435 39.2134L338.577 40.6167L336.722 42.4642C335.702 43.4808 333.571 45.3193 331.987 46.5498C330.404 47.7802 328.971 48.7873 328.805 48.7873C328.638 48.7873 327.696 49.4233 326.711 50.2005C325.727 50.9778 324.685 51.6137 324.398 51.6137C324.11 51.6137 323.875 51.8257 323.875 52.0848C323.875 52.3439 323.694 52.5559 323.472 52.5559C323.251 52.5559 321.496 53.5913 319.572 54.8565C317.649 56.1218 313.52 58.6128 310.397 60.3916C307.274 62.1703 303.392 64.2478 301.77 65.0081C300.148 65.7679 298.821 66.5631 298.821 66.7746C298.821 66.9861 298.497 67.1589 298.101 67.1589C297.706 67.1589 295.738 67.9739 293.729 68.9702C291.72 69.9665 287.842 71.7448 285.112 72.9215C282.382 74.0987 277.915 75.9524 275.185 77.041C272.455 78.1292 269.477 79.3049 268.567 79.6535C267.657 80.0017 265.636 80.7544 264.076 81.3263C262.516 81.8982 259.538 82.9802 257.458 83.7311C255.378 84.482 250.804 86.0563 247.294 87.2292C243.784 88.4022 240.7 89.4207 240.44 89.4923C240.18 89.5643 239.329 89.7805 238.549 89.9737C237.769 90.1664 234.259 91.1216 230.749 92.0972C227.239 93.0723 222.666 94.3315 220.586 94.8959C218.506 95.4602 214.677 96.3425 212.077 96.8569C209.477 97.3713 204.69 97.9234 201.44 98.0841L195.531 98.3752L191.35 97.8179C189.049 97.5112 186.041 96.84 184.663 96.326C183.286 95.8126 181.322 94.7885 180.299 94.0508C179.277 93.3126 177.777 91.71 176.965 90.4886L175.489 88.2684L174.916 85.6041C174.6 84.1386 174.342 81.2439 174.342 79.1712C174.342 77.0985 174.612 74.1307 174.942 72.5762C175.271 71.0217 176.144 67.948 176.88 65.7457C177.617 63.5435 178.782 60.377 179.47 58.7085C180.158 57.0404 181.686 53.7547 182.866 51.4069C184.046 49.0596 186.62 44.7051 188.587 41.7307L192.164 36.3234L196.124 32.2288C198.303 29.9771 201.613 27.0867 203.481 25.8063C205.348 24.5255 207.525 23.1471 208.318 22.7439C209.111 22.3402 211.238 21.5332 213.046 20.9505C214.852 20.3674 217.607 19.7682 219.167 19.6184C220.727 19.4681 225.726 19.4017 230.276 19.47C234.826 19.5383 242.142 19.8063 246.533 20.0659ZM535.654 112.852V200.953L554.681 200.829L573.708 200.707L573.829 165.023L573.95 129.34H616.253H658.555L658.676 165.023L658.797 200.707H677.828H696.859V112.852V24.9984H677.828H658.797L658.676 59.5041L658.555 94.0098H616.253H573.95L573.829 59.5041L573.708 24.9984L554.681 24.8755L535.654 24.7521V112.852ZM715.998 25.2326C715.834 25.4959 716.187 26.3989 716.781 27.2393C717.376 28.0797 718.033 28.9789 718.242 29.238C718.451 29.4971 719.3 30.769 720.128 32.0644C720.956 33.3599 721.77 34.5258 721.935 34.6553C722.101 34.7849 722.322 35.1052 722.426 35.3666C722.53 35.6285 729.618 46.3335 738.177 59.1555C746.736 71.978 753.915 82.5393 754.131 82.6255C754.347 82.7122 754.526 83.0302 754.529 83.3321C754.533 83.6345 754.96 84.4118 755.479 85.0595C755.997 85.7072 762.914 95.9883 770.848 107.906C778.782 119.824 785.588 129.949 785.972 130.405C786.355 130.861 786.668 131.345 786.668 131.48C786.668 131.615 787.626 133.147 788.796 134.885L790.923 138.045V169.499V200.953L809.95 200.829L828.977 200.707L829.098 169.016L829.22 137.326L834.416 129.528C837.275 125.239 839.613 121.646 839.613 121.545C839.613 121.443 840.305 120.346 841.149 119.108C841.994 117.87 842.792 116.751 842.922 116.621C843.052 116.491 843.371 116.045 843.631 115.629C843.891 115.214 846.003 112.034 848.325 108.563C850.647 105.093 856.685 96 861.743 88.357C866.801 80.7139 871.913 72.9766 873.102 71.163C874.292 69.3494 875.382 67.7596 875.524 67.63C875.666 67.5005 877.376 64.9567 879.325 61.9772C881.273 58.9977 883.027 56.4893 883.222 56.4031C883.416 56.3164 883.576 56.0403 883.576 55.7888C883.576 55.5372 888.048 48.654 893.515 40.4923C898.982 32.3311 903.33 25.453 903.178 25.2081L902.902 24.7629H879.984H857.067L851.098 33.8309C847.815 38.8181 843.25 45.7607 840.954 49.2584C838.657 52.7561 836.618 55.8416 836.423 56.1148C836.227 56.388 835.855 56.9387 835.595 57.3391C835.335 57.7395 833.39 60.6959 831.273 63.9086C829.157 67.1213 826.764 70.7546 825.955 71.9822C825.147 73.2103 824.486 74.4115 824.486 74.6517C824.486 74.892 824.301 75.1591 824.074 75.2458C823.848 75.332 822.142 77.7344 820.283 80.5844C818.424 83.4343 815.276 88.1921 813.288 91.157L809.672 96.5474L809.397 95.8677C809.246 95.4936 807.852 93.2796 806.299 90.9478C804.745 88.6161 803.309 86.6376 803.108 86.5514C802.906 86.4647 802.741 86.094 802.741 85.727C802.741 85.36 802.553 85.0595 802.323 85.0595C802.094 85.0595 801.776 84.6883 801.618 84.2351C801.459 83.782 800.743 82.5242 800.026 81.4408C799.309 80.3568 797.464 77.6011 795.927 75.3169C794.388 73.0322 789.819 66.1815 785.771 60.0929C781.723 54.0044 778.248 48.9522 778.049 48.866C777.85 48.7793 777.687 48.5136 777.687 48.2757C777.687 48.0374 776.148 45.5643 774.267 42.7798C772.387 39.9953 770.678 37.5053 770.471 37.2462C770.264 36.9871 768.342 34.1254 766.201 30.8868L762.307 24.9984L739.3 24.8764L716.294 24.754L715.998 25.2326ZM922.085 25.3517C921.961 25.6758 921.915 65.2629 921.981 113.324L922.103 200.707H987.811H1053.52L1057.54 199.851C1059.75 199.38 1063.15 198.235 1065.09 197.307L1068.63 195.619L1071 193.177L1073.37 190.735L1075.1 186.77L1076.84 182.806L1077.94 176.682L1079.05 170.558V97.7783V24.9984L1059.78 24.8755L1040.52 24.7525L1040.52 90.3538L1040.51 155.955L1040.05 158.782C1039.8 160.336 1039.23 162.272 1038.8 163.083C1038.36 163.894 1037.34 164.954 1036.54 165.438L1035.08 166.319L997.856 166.447L960.63 166.576V95.6693V24.7629H941.47H922.309L922.085 25.3517ZM1116.85 25.3334C1116.73 25.6673 1116.68 65.2629 1116.74 113.324L1116.86 200.707H1136.01H1155.15L1155.27 129.222L1155.39 57.7376H1190.07H1224.75L1227.3 58.2129C1228.7 58.4748 1230.36 59.0707 1231 59.5375C1231.63 60.0048 1232.56 60.9418 1233.07 61.6206C1233.58 62.2989 1234.28 64.3001 1234.62 66.0666L1235.25 69.2788L1235.26 135.116L1235.28 200.952L1254.54 200.829L1273.81 200.707L1273.95 131.224L1274.09 61.7417L1273.57 55.6178C1273.29 52.2497 1272.74 48.1161 1272.34 46.432C1271.94 44.7479 1271.46 42.9461 1271.26 42.4279C1271.06 41.9097 1270.2 40.0443 1269.34 38.2825L1267.77 35.0793L1265.11 32.3824L1262.44 29.6856L1259.61 28.3289C1258.06 27.5832 1255.19 26.5374 1253.24 26.0056L1249.7 25.0385L1183.39 24.8821L1117.08 24.7261L1116.85 25.3334ZM1311.61 25.3517C1311.48 25.6758 1311.44 65.2629 1311.5 113.324L1311.62 200.707L1371.9 200.847L1432.17 200.987L1436.55 200.459C1438.95 200.168 1442.25 199.543 1443.87 199.07C1445.5 198.597 1447.66 197.85 1448.69 197.41C1449.72 196.971 1451.74 195.87 1453.18 194.962C1454.62 194.056 1457.14 192.009 1458.77 190.415C1460.41 188.821 1462.59 186.119 1463.63 184.41C1464.67 182.701 1465.96 180.051 1466.5 178.521C1467.04 176.992 1467.94 174.15 1468.49 172.207L1469.5 168.674L1469.65 113.795L1469.81 58.9153L1469.26 54.4401C1468.96 51.9788 1468.2 48.3587 1467.58 46.3952C1466.96 44.4314 1465.63 41.5649 1464.63 40.0245C1463.63 38.4841 1462.1 36.4067 1461.22 35.4081C1460.34 34.4094 1458.55 32.8139 1457.24 31.8623C1455.93 30.9108 1453.64 29.5631 1452.14 28.8678C1450.65 28.172 1447.78 27.171 1445.76 26.642C1443.74 26.1134 1440.18 25.4784 1437.84 25.2302L1433.59 24.7794L1372.71 24.7709L1311.83 24.7629L1311.61 25.3517ZM1538.29 25.2919C1536.34 25.5166 1533.08 26.12 1531.04 26.6335C1529 27.1465 1525.81 28.2968 1523.95 29.1895L1520.57 30.8128L1517.71 33.3929C1516.14 34.8122 1514.05 37.2608 1513.08 38.8346C1512.1 40.408 1510.88 42.9202 1510.35 44.4172C1509.83 45.9138 1509.05 48.6225 1508.63 50.4361L1507.86 53.7335L1507.7 127.343L1507.54 200.952L1526.82 200.829L1546.09 200.707L1546.22 175.622L1546.34 150.538H1589.47L1632.6 150.537V175.622V200.707H1651.75H1670.89V112.852V24.9984L1606.37 24.941L1541.84 24.8835L1538.29 25.2919ZM1708.69 25.3466C1708.57 25.673 1708.52 65.2629 1708.59 113.324L1708.71 200.707H1727.85H1747V112.852V24.9984L1727.96 24.8755L1708.92 24.7521L1708.69 25.3466ZM149.658 28.514C149.501 29.1518 147.866 31.4431 146.023 33.6053C144.181 35.7675 139.829 41.1805 136.353 45.6349C132.876 50.0893 129.027 55.1872 127.8 56.9636C126.573 58.7405 124.748 61.3903 123.745 62.852C122.742 64.3142 121.732 65.5809 121.5 65.6671C121.268 65.7538 121.078 66.0096 121.078 66.2361C121.078 66.4627 119.917 68.4059 118.499 70.5544C117.081 72.7025 115.751 74.6725 115.544 74.9316C115.337 75.1906 113.966 77.3104 112.499 79.6422C111.032 81.974 109.41 84.6238 108.896 85.5306C108.382 86.4374 106.624 89.4051 104.99 92.1255C103.357 94.8459 99.5956 101.417 96.6321 106.729C93.6681 112.04 86.731 125.395 81.2153 136.406C75.6996 147.417 69.9144 159.124 68.3601 162.422L65.5332 168.419L64.1151 169.096L62.6969 169.774L61.2788 169.501C60.4988 169.351 57.7575 167.865 55.1868 166.198C52.6162 164.531 48.8935 161.99 46.9142 160.551C44.9349 159.111 40.5372 155.157 37.1416 151.763L30.9679 145.592L28.3429 141.588C26.8992 139.385 25.0343 136.312 24.199 134.757C23.3637 133.203 22.3644 131.083 21.9782 130.046C21.592 129.01 20.742 126.148 20.0887 123.687L18.9013 119.212L18.8535 113.559L18.8058 107.906L19.8462 104.138C20.4187 102.065 21.3386 99.2033 21.8907 97.7783C22.4429 96.3533 23.6857 93.5976 24.6528 91.6544C25.62 89.7113 27.3242 86.7436 28.4408 85.0595C29.5568 83.3754 31.8089 80.3875 33.4454 78.4193C35.082 76.4517 37.7647 73.59 39.4069 72.0599C41.0496 70.5304 43.9833 67.9984 45.9272 66.4335C47.8705 64.8691 51.2585 62.3508 53.4557 60.8372C55.6529 59.3242 58.2056 57.6524 59.1284 57.1215C60.0511 56.591 61.9462 55.5057 63.3403 54.7096C64.7339 53.9135 67.4993 52.3608 69.4857 51.2585C71.4716 50.1562 73.7212 49.0092 74.4842 48.7091C75.2472 48.4091 77.2577 47.4561 78.9524 46.5912C80.6471 45.7263 82.199 45.0188 82.4013 45.0188C82.6036 45.0188 84.5286 44.2067 86.6785 43.2141C88.8284 42.2216 91.4383 41.0693 92.4783 40.6534C93.5183 40.2379 95.2201 39.6444 96.2601 39.3349C97.3001 39.0254 98.3637 38.6161 98.6237 38.4257C98.8837 38.2354 101.649 37.2975 104.769 36.3422C107.889 35.3864 110.955 34.3929 111.582 34.1338C112.21 33.8752 115.507 32.9496 118.91 32.0771C122.312 31.2043 125.415 30.378 125.805 30.2405C126.195 30.1029 127.259 29.8834 128.169 29.7529C129.079 29.6224 131.312 29.1697 133.132 28.7472C134.952 28.3246 138.983 27.6128 142.089 27.1653L147.736 26.3523L148.839 26.853L149.942 27.3538L149.658 28.514ZM383.667 57.804C385.341 58.6176 387.136 59.6775 387.655 60.1594C388.174 60.6408 388.82 61.0351 389.091 61.0351C389.361 61.0351 389.585 61.1938 389.586 61.3884C389.588 61.5829 390.386 62.2712 391.359 62.9189C392.333 63.5661 393.413 64.3641 393.761 64.6924C394.108 65.0203 395.168 65.8687 396.117 66.5772C397.065 67.2857 400.185 70.202 403.049 73.0581C405.912 75.9142 408.999 79.1999 409.907 80.3597C410.814 81.5194 411.719 82.5393 411.916 82.6255C412.113 82.7122 412.274 82.9477 412.274 83.1493C412.274 83.3509 413.349 85.1405 414.663 87.1265C415.977 89.1121 417.694 92.1623 418.479 93.9043C419.264 95.6463 420.464 98.8736 421.145 101.076L422.383 105.08V112.617V120.154L421.09 124.394C420.379 126.725 418.76 130.753 417.492 133.344C416.224 135.935 414.485 139.114 413.629 140.41C412.773 141.705 411.948 142.871 411.796 143.001C411.645 143.13 410.544 144.508 409.349 146.063C408.155 147.617 405.4 150.609 403.226 152.712C401.052 154.815 398.551 157.199 397.668 158.011C396.784 158.823 395.933 159.491 395.777 159.496C395.62 159.5 394.754 160.151 393.852 160.943C392.95 161.735 391.621 162.731 390.898 163.157C390.175 163.583 389.583 164.097 389.583 164.301C389.583 164.504 389.282 164.67 388.913 164.67C388.545 164.67 388.173 164.851 388.086 165.072C388 165.293 385.908 166.667 383.438 168.125C380.968 169.583 378.724 170.939 378.451 171.138C378.179 171.337 377.328 171.846 376.56 172.268C375.793 172.69 373.251 173.991 370.911 175.159C368.571 176.326 364.848 178.127 362.638 179.161C360.428 180.194 357.237 181.608 355.547 182.303C353.857 182.998 351.918 183.867 351.238 184.235C350.558 184.603 344.921 186.59 338.711 188.649C332.501 190.709 326.995 192.462 326.475 192.546C325.955 192.63 325.423 192.81 325.293 192.946C325.163 193.082 323.355 193.596 321.275 194.088C319.195 194.579 317.281 195.134 317.021 195.32C316.761 195.505 315.609 195.785 314.46 195.942C313.313 196.098 310.76 196.558 308.788 196.964C306.816 197.37 302.694 198.076 299.629 198.532L294.055 199.361L293.011 198.827L291.966 198.293L292.082 197.246C292.146 196.669 293.535 194.668 295.171 192.799C296.806 190.93 299.839 187.299 301.91 184.73C303.981 182.162 306.425 179.088 307.341 177.9C308.257 176.712 310.374 173.832 312.046 171.5C313.718 169.169 315.213 167.155 315.368 167.025C315.524 166.896 316.298 165.836 317.088 164.67C317.877 163.504 319.694 160.854 321.125 158.782C322.556 156.709 324.132 154.277 324.628 153.378C325.124 152.479 325.849 151.381 326.239 150.938C326.629 150.495 329.003 146.778 331.516 142.68C334.028 138.582 336.541 134.38 337.101 133.344C337.661 132.308 338.555 130.718 339.089 129.811C339.623 128.904 341.417 125.779 343.076 122.866C344.735 119.953 346.093 117.374 346.093 117.134C346.093 116.895 346.252 116.629 346.447 116.542C346.643 116.456 348.159 113.736 349.817 110.497C351.476 107.259 353.034 104.356 353.28 104.048C353.525 103.739 356.925 97.1678 360.834 89.4447C364.743 81.7215 368.333 74.4157 368.811 73.2098C369.289 72.0039 370.499 69.3541 371.501 67.3215C372.503 65.2888 373.818 62.4012 374.423 60.9041C375.027 59.4075 376.055 57.7644 376.707 57.2533C377.359 56.7427 378.506 56.3244 379.257 56.3244C380.007 56.3244 381.992 56.99 383.667 57.804ZM1419.88 58.3764C1421.18 58.7217 1422.88 59.3369 1423.66 59.7439C1424.44 60.1509 1425.75 61.1905 1426.57 62.0549C1427.39 62.9189 1428.51 64.4847 1429.05 65.5342C1429.59 66.5838 1430.26 68.6339 1430.53 70.0904L1431.02 72.7383L1430.86 114.111L1430.7 155.484L1430.08 157.461C1429.74 158.548 1428.72 160.305 1427.81 161.366C1426.9 162.427 1425.14 163.807 1423.9 164.434C1422.65 165.061 1420.28 165.793 1418.63 166.061L1415.62 166.547L1382.65 166.55L1349.68 166.554V112.46C1349.68 82.7079 1349.82 58.2242 1349.99 58.0518C1350.17 57.8789 1365.43 57.74 1383.91 57.7433L1417.51 57.7489L1419.88 58.3764ZM1632.52 59.033C1632.49 59.6158 1632.45 72.5998 1632.42 87.8859L1632.37 115.679H1589.35H1546.33L1546.34 92.4788L1546.35 69.2788L1546.83 67.1589C1547.09 65.9931 1547.61 64.4004 1547.97 63.6203C1548.33 62.8397 1549.16 61.744 1549.8 61.1849C1550.45 60.6262 1551.44 59.9234 1552 59.6233C1552.56 59.3232 1554.44 58.7952 1556.18 58.4503L1559.33 57.8233L1595.95 57.8982L1632.58 57.9731L1632.52 59.033ZM250.04 127.915L254.44 128.413L257.417 129.758C259.054 130.498 261.287 131.908 262.379 132.891C263.471 133.874 264.93 135.639 265.62 136.813L266.875 138.948L267.066 144.65L267.256 150.351L266.484 154.095C266.059 156.154 265.248 159.323 264.681 161.137C264.114 162.95 261.658 168.416 259.223 173.282C256.788 178.149 253.552 183.978 252.03 186.236C250.509 188.495 247.598 191.986 245.561 193.994C243.524 196.003 240.794 198.403 239.494 199.329C238.194 200.254 235.785 201.765 234.14 202.686C232.496 203.607 229.878 204.755 228.323 205.237C226.768 205.72 224.141 206.33 222.485 206.593L219.473 207.073L207.363 206.595C200.702 206.332 191.699 205.804 187.356 205.42C183.012 205.037 175.311 204.195 170.241 203.549C165.171 202.904 156.771 201.622 151.573 200.702C146.376 199.782 140.313 198.615 138.101 198.11C135.888 197.604 133.12 196.97 131.95 196.7C130.78 196.429 129.185 196.098 128.405 195.962C127.625 195.827 126.349 195.517 125.569 195.272C124.789 195.027 121.917 194.292 119.187 193.637C116.457 192.982 112.143 191.787 109.601 190.981L104.978 189.515L104.046 188.335C103.534 187.685 103.115 186.782 103.115 186.326C103.115 185.871 103.806 184.639 104.651 183.588C105.496 182.537 106.4 181.661 106.66 181.641C106.92 181.622 107.984 180.881 109.024 179.993C110.064 179.106 111.287 178.051 111.742 177.649C112.196 177.247 112.655 176.918 112.76 176.918C112.865 176.918 115.046 175.526 117.605 173.825C120.165 172.123 122.597 170.48 123.009 170.174C123.421 169.867 124.485 169.213 125.373 168.721C126.26 168.228 129.405 166.466 132.361 164.804C135.317 163.142 139.784 160.809 142.288 159.618C144.792 158.428 147.586 157.087 148.496 156.637C149.406 156.187 153.022 154.623 156.532 153.162C160.042 151.7 163.613 150.194 164.469 149.813C165.324 149.433 167.345 148.681 168.96 148.142C170.574 147.603 172.534 146.881 173.314 146.539C174.094 146.197 175.689 145.598 176.859 145.207C178.029 144.816 181.113 143.734 183.713 142.803C186.313 141.871 192.695 139.716 197.895 138.014C203.095 136.311 207.775 134.733 208.295 134.507C208.815 134.281 212.325 133.254 216.095 132.227C219.865 131.199 225.183 129.909 227.913 129.361C230.643 128.812 234.578 128.204 236.658 128.009C238.738 127.814 241.61 127.601 243.04 127.536C244.47 127.471 247.62 127.641 250.04 127.915Z" fill="#828AA3"/>
</svg>
