<svg width="189" height="245" viewBox="0 0 189 245" fill="none" xmlns="http://www.w3.org/2000/svg">
<path fill-rule="evenodd" clip-rule="evenodd" d="M6.4249 1.34729V1.34729C4.75648 2.2295 3.35354 3.54073 2.36072 5.14579L2.22551 5.36437L1.92395 5.8519C1.0351 7.28885 0.475952 8.90503 0.286754 10.584V10.584L0.251257 10.8997C0.0857059 12.3718 0.240017 13.8623 0.703641 15.2693V15.2693C1.09116 16.4442 2.22033 18.3317 3.21302 19.4639C4.2063 20.5962 6.05753 21.9948 7.32661 22.5725V22.5725C8.84792 23.2643 10.4997 23.6224 12.171 23.6227L94.4416 23.635L176.928 23.6473C178.459 23.6475 179.976 23.3433 181.389 22.7523V22.7523C182.566 22.26 184.275 21.1571 185.186 20.3022C186.097 19.4472 187.322 17.7096 187.908 16.4413C188.495 15.173 188.98 13.0838 188.987 11.7982V11.7982C188.996 10.2619 188.643 8.74509 187.959 7.36969L187.541 6.53064L187.373 6.19218C186.527 4.49179 185.265 3.03255 183.704 1.94974V1.94974V1.94974C182.155 0.874924 180.315 0.29745 178.429 0.29417L95.1492 0.149316L11.8562 0.0049949C9.96323 0.00171502 8.09837 0.462602 6.4249 1.34729V1.34729ZM89.6727 43.0418C88.7226 43.5365 70.5022 61.3614 49.1834 82.6535L12.1276 119.661C10.997 120.791 10.0462 122.086 9.30855 123.504V123.504V123.504C8.57731 124.909 8.19551 126.47 8.19551 128.054V128.511C8.19551 130.088 8.43735 132.016 8.73274 132.794C9.02813 133.572 10.1032 135.159 11.1212 136.32C12.1398 137.481 13.7768 138.848 14.7586 139.358V139.358C15.9327 139.967 17.2343 140.29 18.5571 140.3L19.7117 140.309L20.6013 140.316C22.0963 140.327 23.571 139.969 24.894 139.273V139.273C26.0025 138.689 39.3469 125.864 54.5483 110.771L82.1872 83.3314L82.4751 159.71L82.7569 234.474C82.7609 235.539 82.989 236.592 83.4263 237.563V237.563C83.7908 238.374 84.8163 239.903 85.7054 240.96C86.5944 242.018 88.3691 243.36 89.6491 243.942C90.9285 244.524 93.142 245 94.5671 245C95.9922 245 98.2056 244.524 99.4851 243.942C100.765 243.36 102.54 242.018 103.429 240.96C104.318 239.903 105.343 238.374 105.708 237.563V237.563C106.145 236.592 106.373 235.539 106.377 234.474L106.659 159.703L106.947 83.3159L134.586 110.767C149.787 125.864 163.132 138.693 164.24 139.275V139.275C165.563 139.97 167.037 140.327 168.532 140.316L169.422 140.309L170.577 140.3C171.9 140.29 173.201 139.967 174.376 139.358V139.358C175.357 138.848 176.994 137.481 178.013 136.32C179.031 135.159 180.106 133.572 180.401 132.794C180.697 132.016 180.939 130.086 180.939 128.505V127.693C180.939 126.338 180.624 125 180.02 123.786V123.786C179.514 122.772 161.7 104.478 140.433 83.1331L103.465 46.0314C102.338 44.9002 101.044 43.9487 99.6285 43.2102V43.2102V43.2102C98.2257 42.4784 96.6649 42.102 95.0828 42.114L94.4462 42.1188L93.3479 42.1272C92.0677 42.1369 90.8081 42.4503 89.6727 43.0418V43.0418Z" fill="#454E66"/>
</svg>
