<svg width="1114" height="226" viewBox="0 0 1114 226" fill="none" xmlns="http://www.w3.org/2000/svg">
<path fill-rule="evenodd" clip-rule="evenodd" d="M660.69 29.245C660.69 13.0934 673.784 0 689.936 0H1084.75C1100.91 0 1114 13.0934 1114 29.245V123.627C1114 139.778 1100.91 152.872 1084.75 152.872H689.936C673.784 152.872 660.69 139.778 660.69 123.627V29.245ZM534.28 24.5857C531.289 25.6798 527.015 28.3583 524.784 30.5397C522.554 32.7212 519.633 36.7397 518.293 39.4728L515.858 44.4391L515.976 53.1288L516.093 61.8173L518.15 65.7574C519.28 67.9228 521.904 71.2993 523.98 73.26C526.055 75.2194 531.343 78.3128 535.73 80.1326C540.117 81.9524 547.947 84.6749 553.132 86.181C558.315 87.6858 564.148 90.1703 566.093 91.7003L569.629 94.4813V97.4124C569.629 99.0249 568.653 101.737 567.461 103.438C566.268 105.141 563.297 107.368 560.856 108.387C558.417 109.407 554.062 110.24 551.179 110.24C548.297 110.24 542.349 109.124 537.965 107.758C533.579 106.395 528.165 103.977 525.933 102.388L521.874 99.4968L518.709 104.536C516.969 107.308 514.804 110.971 513.9 112.677L512.255 115.778L514.402 118.152C515.584 119.458 520.74 122.457 525.862 124.818L535.175 129.11L545.655 129.828L556.135 130.546L562.55 128.961C566.078 128.089 572.07 125.332 575.865 122.834L582.766 118.293L586.5 111.941L590.234 105.588L590.223 96.9471L590.213 88.3066L586.875 82.3247L583.537 76.3427L576.783 72.3056C573.069 70.0856 563.853 66.5443 556.303 64.4347L542.575 60.6009L538.517 56.9746L534.458 53.3482L535.773 49.5583L537.088 45.7684L541.727 43.3584L546.365 40.9496L554.014 41.6768L561.663 42.4052L568.21 45.7232C571.812 47.5484 575.168 49.7045 575.669 50.5154L576.58 51.9883L581.741 44.2264C584.58 39.9566 586.904 35.748 586.907 34.8747C586.909 34 582.31 31.009 576.685 28.2281L566.461 23.17L553.089 22.8842L539.718 22.5984L534.28 24.5857ZM158.858 75.5584V127.521H169.493H180.128V110.24V92.9592L185.777 92.9871L191.427 93.0137L202.703 110.268L213.977 127.521H225.776H237.574L236.83 125.582C236.421 124.515 231.272 116.456 225.388 107.675C219.505 98.8933 214.691 91.1646 214.691 90.5013C214.691 89.8366 216.479 88.5525 218.664 87.6472C220.85 86.742 224.704 83.7164 227.227 80.9222C229.751 78.1293 232.519 73.4967 233.379 70.6293L234.941 65.4157L234.439 55.4631L233.936 45.5092L229.963 39.1338L225.99 32.757L218.679 28.6282L211.368 24.4993L185.113 24.0474L158.858 23.5941V75.5584ZM294.452 75.6103V127.662L324.03 127.26L353.609 126.857L359.591 122.86L365.573 118.862L368.564 112.94L371.555 107.018V99.2708V91.5235L368.955 86.4269C367.524 83.6234 364.487 79.7591 362.206 77.8395C359.924 75.92 357.412 74.3487 356.624 74.3487C355.834 74.3487 356.718 73.0021 358.586 71.3578C360.453 69.7121 363.237 66.2731 364.77 63.7142L367.558 59.0616L367.562 50.6869L367.567 42.3135L365.699 38.723C364.671 36.749 362.421 33.8165 360.695 32.2067C358.971 30.5956 355.176 28.236 352.261 26.9599L346.962 24.6416L320.707 24.0992L294.452 23.5568V75.6103ZM432.705 75.6781V127.521H443.34H453.975V75.6781V23.8347H443.34H432.705V75.6781ZM32.9999 27.0051C29.9464 27.9994 25.3973 30.0811 22.8888 31.6311C20.3804 33.1824 15.5083 37.4655 12.0612 41.1504C8.61422 44.8352 4.49056 50.6709 2.89667 54.1205L0 60.3909V75.6781V90.9652L4.19678 98.9903L8.39222 107.014L14.6189 112.753C18.042 115.909 24.7978 120.283 29.63 122.474L38.4144 126.458L49.1184 126.449L59.821 126.438L67.0766 123.567C71.066 121.988 77.104 118.66 80.4938 116.173C83.8837 113.685 88.2174 109.388 90.1263 106.625C92.0339 103.861 94.9692 98.6088 96.6481 94.9532L99.7003 88.3066L99.6791 75.6781L99.6591 63.0495L95.5315 54.2694C93.2609 49.44 89.2423 43.0991 86.6035 40.1773C83.9634 37.2555 78.0544 32.8528 73.4708 30.3935L65.1384 25.9204L51.8449 25.5588L38.5513 25.1972L32.9999 27.0051ZM340.993 44.6584C343.055 45.8761 345.391 48.2968 346.184 50.0382C346.978 51.7796 347.613 54.2229 347.597 55.4684C347.581 56.714 346.534 59.0084 345.271 60.5677C344.007 62.127 341.667 64.0718 340.07 64.888C338.473 65.7042 332.342 66.3728 326.445 66.3728H315.722V54.409V42.4451H326.484H337.246L340.993 44.6584ZM63.0872 47.4952C65.6143 48.6836 69.9148 51.9564 72.644 54.7679L77.6038 59.8791L79.8384 66.6068L82.0731 73.3345L81.2449 79.3829C80.7889 82.7102 78.9092 88.0035 77.0681 91.1447C75.2269 94.2872 71.748 98.3615 69.3379 100.199C66.9277 102.037 62.3787 104.451 59.2308 105.561C56.0815 106.672 51.5617 107.582 49.1862 107.582C46.8106 107.582 42.2496 106.659 39.0511 105.531C35.8514 104.403 30.9195 101.262 28.0906 98.5516C25.2617 95.8411 21.8347 91.2311 20.4761 88.3066L18.0048 82.9893L17.9755 75.9679C17.9596 72.1062 18.8742 66.7224 20.0081 64.004C21.1421 61.2855 23.9829 57.0663 26.3226 54.6283C28.6609 52.189 32.3698 49.2472 34.5632 48.0907C36.7567 46.9342 40.3459 45.5291 42.5394 44.9682C44.7328 44.4072 49.2194 44.2596 52.5095 44.6412C55.7997 45.0213 60.5601 46.3055 63.0872 47.4952ZM210.155 49.4985L213.362 53.2285V58.9034V64.5796L210.371 67.3818C208.725 68.9225 205.695 70.8221 203.637 71.601C201.579 72.3814 195.447 73.0194 190.011 73.0194H180.128V58.9366V44.8552L193.538 45.3111L206.949 45.7684L210.155 49.4985ZM346.409 88.6602L350.285 93.0017V96.672C350.285 98.6912 349.409 101.594 348.338 103.124C347.266 104.655 344.334 106.881 341.821 108.074L337.255 110.24H326.488H315.722V96.8222V83.4054L329.127 83.8613L342.531 84.3186L346.409 88.6602ZM239.284 192.597C237.822 193.202 235.256 195.172 233.581 196.974C231.907 198.778 230.19 202.399 229.764 205.022C229.338 207.645 229.375 211.845 229.847 214.355C230.318 216.866 232.156 220.489 233.933 222.406L237.164 225.891H245.084H253.006L256.447 221.801L259.889 217.712V210.588C259.889 206.67 259.305 201.931 258.593 200.057C257.88 198.181 255.337 195.452 252.943 193.993C250.549 192.533 247.094 191.374 245.266 191.418C243.438 191.462 240.746 191.992 239.284 192.597ZM341.538 193.834C339.286 195.208 336.67 198.2 335.725 200.484L334.005 204.635L334.611 211.95L335.218 219.264L338.382 222.633L341.545 226L350.189 225.613L358.833 225.226L361.871 220.709L364.908 216.192V209.676C364.908 206.092 364 201.406 362.891 199.261C361.783 197.117 359.12 194.454 356.976 193.345C354.83 192.237 351.401 191.331 349.355 191.334C347.307 191.337 343.79 192.463 341.538 193.834ZM598.56 193.409C596.558 194.495 594.015 197.134 592.91 199.273L590.899 203.161V210.436V217.712L594.34 221.801L597.782 225.891H606.207H614.634L617.389 222.388C618.904 220.462 620.144 217.77 620.144 216.406V213.927H618.009C616.836 213.927 614.698 215.423 613.26 217.25L610.646 220.574H606.186H601.726L598.972 217.071C597.456 215.145 596.216 212.182 596.216 210.487C596.216 208.792 596.881 205.949 597.692 204.166C598.504 202.385 600.696 200.231 602.562 199.38L605.958 197.833L609.684 199.376C611.732 200.226 613.769 202.052 614.207 203.436L615.006 205.951H617.496C618.867 205.951 620.364 205.342 620.824 204.598C621.284 203.854 620.437 201.264 618.941 198.843C617.446 196.424 614.683 193.743 612.804 192.887C610.923 192.029 607.768 191.353 605.791 191.382C603.815 191.411 600.56 192.323 598.56 193.409ZM760.983 193.283C759.115 194.298 756.491 197.166 755.151 199.654L752.714 204.179L753.339 211.722L753.965 219.264L757.077 222.578L760.191 225.891H768.368H776.544L779.658 222.578L782.77 219.264L783.353 212.236L783.936 205.208L781.85 200.214L779.763 195.221L775.105 193.275C772.543 192.205 769.081 191.353 767.413 191.382C765.745 191.411 762.851 192.266 760.983 193.283ZM938.875 193.409C936.873 194.495 934.33 197.134 933.225 199.273L931.214 203.161V210.242V217.324L933.463 220.61C934.701 222.417 936.345 224.337 937.119 224.874C937.892 225.411 942.221 225.859 946.736 225.871L954.949 225.891L957.704 222.388L960.459 218.885V210.487C960.459 205.867 959.779 200.594 958.945 198.766C958.113 196.94 955.481 194.519 953.095 193.387C950.71 192.255 947.353 191.353 945.636 191.382C943.918 191.411 940.875 192.323 938.875 193.409ZM103.63 207.537C100.889 215.804 98.371 223.316 98.0347 224.229L97.4232 225.891H100.889H104.354V223.232V220.574H111.577H118.798L119.642 223.232L120.486 225.891H123.054C124.468 225.891 125.624 225.388 125.624 224.773C125.624 224.159 123.295 216.83 120.448 208.489L115.271 193.323L111.941 192.915L108.612 192.508L103.63 207.537ZM145.564 209.275V225.891H154.664H163.763L166.09 223.32L168.417 220.749L167.472 209.03L166.528 197.311L164.481 194.984L162.434 192.658H153.999H145.564V209.275ZM185.445 195.981V199.305H190.763H196.08V212.598V225.891H198.739H201.397V212.598V199.305H206.715H212.032V195.981V192.658H198.739H185.445V195.981ZM281.159 209.275V225.891H283.817H286.476L286.508 216.918L286.539 207.945L290.828 216.909L295.117 225.872L297.159 225.882L299.202 225.891L303.394 217.583L307.586 209.275L307.666 217.583L307.746 225.891H311.069H314.393V209.275V192.658H311.372H308.352L303.209 203.957C300.381 210.172 297.701 215.233 297.256 215.203C296.811 215.174 294.104 210.089 291.241 203.904L286.035 192.658H283.597H281.159V209.275ZM386.178 209.275V225.891H395.483H404.789L407.447 223.232L410.106 220.574V216.101V211.627L407.35 208.125L404.596 204.622H397.38H390.166V201.963V199.305H398.807H407.447V195.981V192.658H396.813H386.178V209.275ZM431.376 209.275V225.891L433.702 225.874L436.029 225.856L442.675 215.63L449.322 205.404L449.71 215.647L450.099 225.891H452.701H455.304V209.275V192.658H452.813H450.322L443.175 203.554L436.029 214.451L435.643 203.554L435.256 192.658H433.317H431.376V209.275ZM480.933 205.576L479.398 218.495L477.321 220.013C476.179 220.849 475.245 222.512 475.245 223.711V225.891H478.521H481.798L483.043 223.565C483.727 222.285 484.672 218.247 485.142 214.592C485.612 210.936 486.297 206 486.662 203.625L487.33 199.305H492.586H497.844V212.598V225.891H500.502H503.161V209.275V192.658H492.815H482.47L480.933 205.576ZM525.76 209.275V225.891H528.388H531.016L533.343 222.235C534.622 220.225 536.048 218.281 536.511 217.915C536.973 217.55 539.219 214.259 541.501 210.604L545.65 203.957L545.675 214.924L545.7 225.891H548.359H551.018V209.275V192.658H548.43H545.843L538.792 203.328L531.742 213.999L531.357 203.328L530.97 192.658H528.366H525.76V209.275ZM661.354 209.275V225.891H663.348H665.342V212.598V199.305H673.983H682.624V212.598V225.891H685.283H687.942V209.275V192.658H674.648H661.354V209.275ZM710.541 209.275V225.891H712.535H714.529V220.574V215.256H721.235H727.943L731.205 211.993L734.469 208.731V204.197V199.664L731.713 196.161L728.959 192.658H719.749H710.541V209.275ZM803.595 209.275V225.891H813.514H823.432L826.143 222.981L828.853 220.073V215.849V211.627L826.097 208.125L823.343 204.622H816.792H810.242V201.963V199.305H818.218H826.195V195.981V192.658H814.895H803.595V209.275ZM848.794 209.275V225.891H859.428H870.063V223.232V220.574H862.087H854.111V216.586V212.598H860.758H867.405V209.275V205.951H860.758H854.111V202.628V199.305H862.087H870.063V195.981V192.658H859.428H848.794V209.275ZM891.333 209.275V225.891H894.656H897.98V212.664V199.438L905.624 199.039L913.267 198.64L913.693 195.649L914.117 192.658H902.726H891.333V209.275ZM981.729 225.891H984.327H986.926L987.318 216.918L987.711 207.945L992.017 216.918L996.321 225.891H998.383H1000.44L1005.04 216.291L1009.65 206.69V216.291V225.891H1012.3H1014.96V209.275V192.658H1012.39H1009.82L1004.48 203.957C1001.54 210.172 998.837 215.256 998.472 215.256C998.107 215.256 995.427 210.172 992.514 203.957L987.219 192.658H984.474H981.729V209.275V225.891ZM252.245 202.167C253.525 203.679 254.572 206.605 254.572 208.671C254.572 210.735 253.995 213.943 253.289 215.797L252.007 219.17L248.636 220.015C246.783 220.481 243.788 220.491 241.981 220.038C240.175 219.583 238.021 217.951 237.196 216.409C236.37 214.867 235.695 211.455 235.695 208.827V204.049L239.339 200.914L242.981 197.781L246.451 198.6C248.358 199.049 250.965 200.655 252.245 202.167ZM353.456 199.477C355.269 200.303 357.458 202.684 358.322 204.768L359.892 208.558L358.973 212.24C358.467 214.265 357.11 216.967 355.958 218.247L353.861 220.574H349.621H345.38L343.283 218.247C342.131 216.967 340.774 214.265 340.269 212.24L339.349 208.558L340.924 204.757C341.789 202.666 343.802 200.326 345.395 199.556C346.988 198.785 348.711 198.115 349.226 198.066C349.74 198.015 351.644 198.651 353.456 199.477ZM773.914 201.158L777.613 204.34V209.692V215.044L775.11 217.809L772.608 220.574H768.259H763.908L761.153 217.071C759.638 215.145 758.44 212.004 758.49 210.092C758.542 208.18 759.021 205.505 759.555 204.146C760.09 202.787 761.992 200.864 763.783 199.872C765.573 198.881 767.752 198.048 768.625 198.022C769.499 197.997 771.878 199.407 773.914 201.158ZM951.825 201.184C953.589 202.95 955.42 205.929 955.89 207.804L956.746 211.217L954.218 215.562L951.688 219.909L946.921 220.313L942.153 220.716L939.343 217.143C937.797 215.177 936.531 212.125 936.531 210.358C936.531 208.593 937.42 205.429 938.506 203.327C939.594 201.225 941.537 199.232 942.827 198.895C944.116 198.559 945.947 198.215 946.893 198.13C947.841 198.044 950.06 199.419 951.825 201.184ZM161.087 201.433L161.904 203.561L160.049 204.736C159.028 205.382 156.248 205.919 153.873 205.931L149.553 205.951V202.628V199.305H154.911H160.271L161.087 201.433ZM728.351 202.374L729.816 204.777L727.236 206.694C725.816 207.747 722.377 208.61 719.592 208.61H714.529V203.884V199.158L720.707 199.564L726.885 199.969L728.351 202.374ZM114.119 207.945L116.158 213.927H112.249C110.101 213.927 108.342 213.548 108.342 213.084C108.342 212.62 109.035 209.929 109.882 207.102C110.729 204.276 111.57 201.963 111.751 201.963C111.933 201.963 112.998 204.655 114.119 207.945ZM402.795 217.915L400.389 220.574H395.277H390.166V216.143C390.166 213.705 390.565 211.312 391.053 210.826C391.539 210.338 393.84 209.939 396.164 209.939H400.389L402.795 212.598L405.201 215.256L402.795 217.915ZM821.612 212.676L824.089 215.412L822.68 217.661L821.271 219.909L815.756 220.317L810.242 220.727V215.332V209.939H814.689H819.136L821.612 212.676ZM162.371 214.609C162.797 215.715 162.405 217.51 161.502 218.597L159.862 220.574H154.708H149.553V216.586V212.598H155.576H161.6L162.371 214.609ZM748.488 58.0646C744.939 68.1182 739.435 83.4001 736.258 92.0247C733.081 100.649 730.481 108.607 730.481 109.707V111.709L737.355 111.306L744.23 110.905L746.107 105.255L747.985 99.6058H764.216H780.447L782.5 105.255L784.551 110.905L790.238 111.321C793.365 111.55 796.747 111.422 797.752 111.037L799.579 110.335L793.664 94.0027C790.411 85.0205 784.652 69.1485 780.866 58.7293L773.983 39.7865H764.462H754.94L748.488 58.0646ZM775.38 85.6479L770.241 70.5004C767.414 62.1682 764.878 55.1295 764.605 54.857C764.333 54.5845 761.633 61.356 758.605 69.9035C755.578 78.4523 753.321 85.6666 753.589 85.9364C753.859 86.2049 758.872 86.2501 764.729 86.0361L775.38 85.6479ZM814.197 85.0059L815.086 62.3955L815.976 39.7865H822.414H828.853V63.7807V87.7735L830.942 91.812L833.03 95.8505L839.036 98.5078L845.042 101.164L848.58 100.34C850.524 99.8849 853.757 98.8667 855.761 98.0744C857.765 97.2821 860.606 94.69 862.075 92.3131L864.746 87.9929V63.8897V39.7865H871.232H877.719L878.677 57.699C879.205 67.5506 879.207 79.3656 878.681 83.9531C878.155 88.5405 876.617 94.4799 875.262 97.1505C873.908 99.8225 870.655 103.775 868.033 105.936C865.412 108.096 860.988 110.547 858.203 111.382C855.416 112.216 850.285 112.899 846.8 112.899C843.314 112.899 837.999 112.168 834.99 111.275L829.518 109.649L823.436 103.594L817.353 97.5387L815.775 91.2723L814.197 85.0059ZM895.321 45.7684V51.7503H907.95H920.579V81.7291V111.709L927.558 111.306L934.537 110.905V81.3277V51.749L947.654 51.7503H960.769L959.968 48.7594C959.528 47.115 959.158 44.4218 959.149 42.7774L959.13 39.7865H927.226H895.321V45.7684ZM980.724 49.3802C983.223 46.9807 988.211 43.8316 991.807 42.384L998.346 39.7493L1008.32 40.2119L1018.29 40.6758L1023.73 43.4753C1026.72 45.016 1031.15 48.5241 1033.56 51.2718C1035.97 54.0195 1039.16 58.9898 1040.64 62.3171L1043.34 68.3668L1043.23 76.3427L1043.13 84.3186L1040.85 89.6359C1039.61 92.5604 1036.83 97.1612 1034.7 99.8583L1030.82 104.765L1022.68 108.831L1014.54 112.899H1006.32H998.105L989.82 108.758L981.534 104.617L977.059 98.4559C974.6 95.0675 971.871 89.7409 970.996 86.6197L969.405 80.9435L970.073 72.622L970.741 64.3004L973.461 59.023C974.955 56.1198 978.224 51.7809 980.724 49.3802ZM1015.73 55.6C1018.71 56.9546 1022.42 59.6704 1023.97 61.6365C1025.51 63.6012 1027.48 67.3313 1028.33 69.9234L1029.89 74.6359L1029.12 79.331C1028.71 81.9139 1026.9 86.2422 1025.1 88.95C1023.31 91.6578 1019.76 94.8641 1017.21 96.0751L1012.57 98.2765H1005.99H999.404L994.919 95.2536C992.452 93.5919 989.021 90.1517 987.294 87.61L984.155 82.9893L984.65 74.9562L985.143 66.9245L988.075 62.8063C989.689 60.5411 993.556 57.4265 996.671 55.8845C999.786 54.3425 1004.13 53.0943 1006.32 53.1102C1008.52 53.1249 1012.75 54.2468 1015.73 55.6Z" fill="#828AA3"/>
</svg>
