<svg width="249" height="249" viewBox="0 0 249 249" fill="none" xmlns="http://www.w3.org/2000/svg">
<rect width="249" height="249" rx="56" fill="white"/>
<path d="M157.104 66C165.82 66 174.205 69.445 180.373 75.6265C186.548 81.795 190 90.115 190 98.825V150.175C190 168.31 175.245 183 157.104 183H92.89C74.7485 183 60 168.31 60 150.175V98.825C60 80.69 74.6835 66 92.89 66H157.104ZM164.455 99.8C163.09 99.7285 161.79 100.19 160.808 101.1L131.5 124.5C127.73 127.627 122.328 127.627 118.5 124.5L89.25 101.1C87.2285 99.605 84.4335 99.8 82.75 101.555C80.995 103.31 80.8 106.105 82.2885 108.055L83.14 108.9L112.715 131.975C116.355 134.835 120.769 136.395 125.39 136.395C129.999 136.395 134.49 134.835 138.124 131.975L167.445 108.51L167.965 107.99C169.519 106.105 169.519 103.375 167.894 101.49C166.99 100.522 165.748 99.93 164.455 99.8Z" fill="url(#paint0_linear_4140_57)"/>
<defs>
<linearGradient id="paint0_linear_4140_57" x1="125" y1="66" x2="125" y2="183" gradientUnits="userSpaceOnUse">
<stop stop-color="#3E7DFF"/>
<stop offset="0.603456" stop-color="#1059EE"/>
<stop offset="1" stop-color="#3E7DFF"/>
</linearGradient>
</defs>
</svg>
