<svg width="133" height="19" viewBox="0 0 133 19" fill="none" xmlns="http://www.w3.org/2000/svg">
<path d="M15.9189 11.82C15.6599 12.071 15.5409 12.434 15.5999 12.79L16.4889 17.71C16.5639 18.127 16.3879 18.549 16.0389 18.79C15.6969 19.04 15.2419 19.07 14.8689 18.87L10.4399 16.56C10.2859 16.478 10.1149 16.434 9.93988 16.429H9.66888C9.57488 16.443 9.48288 16.473 9.39888 16.519L4.96888 18.84C4.74988 18.95 4.50188 18.989 4.25888 18.95C3.66688 18.838 3.27188 18.274 3.36888 17.679L4.25888 12.759C4.31788 12.4 4.19888 12.035 3.93988 11.78L0.328876 8.28C0.0268758 7.987 -0.0781242 7.547 0.0598758 7.15C0.193876 6.754 0.535876 6.465 0.948876 6.4L5.91888 5.679C6.29688 5.64 6.62888 5.41 6.79888 5.07L8.98888 0.58C9.04088 0.48 9.10788 0.388 9.18888 0.31L9.27888 0.24C9.32588 0.188 9.37988 0.145 9.43988 0.11L9.54888 0.07L9.71888 0H10.1399C10.5159 0.039 10.8469 0.264 11.0199 0.6L13.2389 5.07C13.3989 5.397 13.7099 5.624 14.0689 5.679L19.0389 6.4C19.4589 6.46 19.8099 6.75 19.9489 7.15C20.0799 7.551 19.9669 7.991 19.6589 8.28L15.9189 11.82Z" fill="#F6D106"/>
<path d="M43.9218 11.82C43.6628 12.071 43.5438 12.434 43.6028 12.79L44.4918 17.71C44.5668 18.127 44.3908 18.549 44.0418 18.79C43.6998 19.04 43.2448 19.07 42.8718 18.87L38.4428 16.56C38.2888 16.478 38.1178 16.434 37.9428 16.429H37.6718C37.5778 16.443 37.4858 16.473 37.4018 16.519L32.9718 18.84C32.7528 18.95 32.5048 18.989 32.2618 18.95C31.6698 18.838 31.2748 18.274 31.3718 17.679L32.2618 12.759C32.3208 12.4 32.2018 12.035 31.9428 11.78L28.3318 8.28C28.0298 7.987 27.9248 7.547 28.0628 7.15C28.1968 6.754 28.5388 6.465 28.9518 6.4L33.9218 5.679C34.2998 5.64 34.6318 5.41 34.8018 5.07L36.9918 0.58C37.0438 0.48 37.1108 0.388 37.1918 0.31L37.2818 0.24C37.3288 0.188 37.3828 0.145 37.4428 0.11L37.5518 0.07L37.7218 0H38.1428C38.5188 0.039 38.8498 0.264 39.0228 0.6L41.2418 5.07C41.4018 5.397 41.7128 5.624 42.0718 5.679L47.0418 6.4C47.4618 6.46 47.8128 6.75 47.9518 7.15C48.0828 7.551 47.9698 7.991 47.6618 8.28L43.9218 11.82Z" fill="#F6D106"/>
<path d="M71.9247 11.82C71.6657 12.071 71.5467 12.434 71.6057 12.79L72.4947 17.71C72.5697 18.127 72.3937 18.549 72.0447 18.79C71.7027 19.04 71.2477 19.07 70.8747 18.87L66.4457 16.56C66.2917 16.478 66.1207 16.434 65.9457 16.429H65.6747C65.5807 16.443 65.4887 16.473 65.4047 16.519L60.9747 18.84C60.7557 18.95 60.5077 18.989 60.2647 18.95C59.6727 18.838 59.2777 18.274 59.3747 17.679L60.2647 12.759C60.3237 12.4 60.2047 12.035 59.9457 11.78L56.3347 8.28C56.0327 7.987 55.9277 7.547 56.0657 7.15C56.1997 6.754 56.5417 6.465 56.9547 6.4L61.9247 5.679C62.3027 5.64 62.6347 5.41 62.8047 5.07L64.9947 0.58C65.0467 0.48 65.1137 0.388 65.1947 0.31L65.2847 0.24C65.3317 0.188 65.3857 0.145 65.4457 0.11L65.5547 0.07L65.7247 0H66.1457C66.5217 0.039 66.8527 0.264 67.0257 0.6L69.2447 5.07C69.4047 5.397 69.7157 5.624 70.0747 5.679L75.0447 6.4C75.4647 6.46 75.8157 6.75 75.9547 7.15C76.0857 7.551 75.9727 7.991 75.6647 8.28L71.9247 11.82Z" fill="#F6D106"/>
<path d="M99.9277 11.82C99.6687 12.071 99.5497 12.434 99.6087 12.79L100.498 17.71C100.573 18.127 100.397 18.549 100.048 18.79C99.7057 19.04 99.2507 19.07 98.8777 18.87L94.4487 16.56C94.2947 16.478 94.1237 16.434 93.9487 16.429H93.6777C93.5837 16.443 93.4917 16.473 93.4077 16.519L88.9777 18.84C88.7587 18.95 88.5107 18.989 88.2677 18.95C87.6757 18.838 87.2807 18.274 87.3777 17.679L88.2677 12.759C88.3267 12.4 88.2077 12.035 87.9487 11.78L84.3377 8.28C84.0357 7.987 83.9307 7.547 84.0687 7.15C84.2027 6.754 84.5447 6.465 84.9577 6.4L89.9277 5.679C90.3057 5.64 90.6377 5.41 90.8077 5.07L92.9977 0.58C93.0497 0.48 93.1167 0.388 93.1977 0.31L93.2877 0.24C93.3347 0.188 93.3887 0.145 93.4487 0.11L93.5577 0.07L93.7277 0H94.1487C94.5247 0.039 94.8557 0.264 95.0287 0.6L97.2477 5.07C97.4077 5.397 97.7187 5.624 98.0777 5.679L103.048 6.4C103.468 6.46 103.819 6.75 103.958 7.15C104.089 7.551 103.976 7.991 103.668 8.28L99.9277 11.82Z" fill="#F6D106"/>
<path d="M127.931 11.82C127.672 12.071 127.553 12.434 127.612 12.79L128.501 17.71C128.576 18.127 128.4 18.549 128.051 18.79C127.709 19.04 127.254 19.07 126.881 18.87L122.452 16.56C122.298 16.478 122.127 16.434 121.952 16.429H121.681C121.587 16.443 121.495 16.473 121.411 16.519L116.981 18.84C116.762 18.95 116.514 18.989 116.271 18.95C115.679 18.838 115.284 18.274 115.381 17.679L116.271 12.759C116.33 12.4 116.211 12.035 115.952 11.78L112.341 8.28C112.039 7.987 111.934 7.547 112.072 7.15C112.206 6.754 112.548 6.465 112.961 6.4L117.931 5.679C118.309 5.64 118.641 5.41 118.811 5.07L121.001 0.58C121.053 0.48 121.12 0.388 121.201 0.31L121.291 0.24C121.338 0.188 121.392 0.145 121.452 0.11L121.561 0.07L121.731 0H122.152C122.528 0.039 122.859 0.264 123.032 0.6L125.251 5.07C125.411 5.397 125.722 5.624 126.081 5.679L131.051 6.4C131.471 6.46 131.822 6.75 131.961 7.15C132.092 7.551 131.979 7.991 131.671 8.28L127.931 11.82Z" fill="#F6D106"/>
</svg>
