<svg width="1371" height="226" viewBox="0 0 1371 226" fill="none" xmlns="http://www.w3.org/2000/svg">
<path fill-rule="evenodd" clip-rule="evenodd" d="M142.863 0.966364C136.247 1.767 123.977 3.96352 115.597 5.84556C107.216 7.72921 93.1422 12.0725 84.3207 15.4981C75.4992 18.9236 62.6198 25.0463 55.7006 29.1024L43.1179 36.4781L30.3123 48.7187L17.5051 60.9576L11.3412 71.454C7.95057 77.2269 4.013 85.9216 2.58873 90.7751L0 99.5997V112.435V125.271L2.58873 134.096C4.013 138.949 7.95057 147.644 11.3412 153.417L17.5051 163.913L30.2177 176.064C37.2107 182.747 48.005 191.228 54.2057 194.913C60.4048 198.599 71.5231 204.186 78.9091 207.33C86.2967 210.475 100.28 215.07 109.983 217.544C119.687 220.017 136.287 222.932 146.873 224.02L166.12 226L184.565 225.041C194.71 224.511 209.154 222.993 216.664 221.665C224.175 220.336 236.801 217.37 244.724 215.074C252.648 212.776 265.131 208.083 272.467 204.644C279.803 201.204 290.745 195.106 296.784 191.092C302.821 187.076 311.919 179.65 317.001 174.586C322.082 169.524 328.963 161.189 332.291 156.061C335.619 150.935 339.963 141.91 341.944 136.005L345.544 125.271V112.435V99.5997L341.944 88.8658C339.963 82.9613 335.613 73.9361 332.279 68.8099C328.944 63.682 321.951 55.2762 316.74 50.129C311.527 44.9819 302.436 37.5548 296.535 33.6238C290.635 29.6944 279.803 23.6664 272.467 20.2264C265.131 16.7881 252.648 12.095 244.724 9.79738C236.801 7.50138 224.175 4.52349 216.664 3.18054C209.154 1.8376 192.184 0.462569 178.951 0.124026C165.719 -0.214518 149.479 0.164128 142.863 0.966364ZM207.875 15.474C214.648 16.4158 225.348 18.5065 231.653 20.1206C237.957 21.7331 247.379 25.0719 252.59 27.5396C257.799 30.0073 264.475 34.4389 267.421 37.3879L272.78 42.7484V49.0572V55.3644L268.039 60.7666L263.299 66.1673L252.401 71.1861C246.407 73.9474 237.173 77.267 231.88 78.5635C226.587 79.8599 219.912 81.3905 217.044 81.9649L211.831 83.0078L211.804 79.2694C211.788 77.2141 210.422 70.3165 208.766 63.9419C207.111 57.5673 203.595 47.7303 200.954 42.0842C198.312 36.4364 193.497 28.8762 190.252 25.2838L184.353 18.7535L178.64 16.8667L172.927 14.9798L166.893 16.7881L160.859 18.5963L154.889 25.2067C151.606 28.8425 146.852 36.2375 144.325 41.6413C141.797 47.0436 138.268 57.1758 136.485 64.1569C134.699 71.1364 133.24 78.1768 133.24 79.8005C133.24 81.4242 132.611 82.7527 131.841 82.7527C131.073 82.7527 123.491 80.9878 114.994 78.833C106.498 76.6766 95.1808 72.5852 89.8462 69.7405C84.5116 66.8957 78.3782 62.4674 76.2194 59.9002L72.2914 55.2312L72.3475 50.1386C72.3796 47.3388 73.281 43.4833 74.3524 41.5723C75.4238 39.6614 78.1055 36.6899 80.3109 34.9699C82.5163 33.2499 88.0402 29.964 92.5872 27.6664C97.1343 25.3688 106.532 22.017 113.47 20.2168C120.41 18.4182 130.403 16.318 135.678 15.5494C140.953 14.7809 156.585 14.0637 170.415 13.9562C184.244 13.8487 201.101 14.5322 207.875 15.474ZM607.501 29.0045C603.26 30.171 595.682 33.1168 590.66 35.5524L581.532 39.9775L569.375 52.1394L557.217 64.3013L552.984 73.1259C550.655 77.9794 547.645 86.2537 546.294 91.5132C544.946 96.7726 543.84 106.188 543.84 112.435C543.84 118.683 544.946 128.098 546.294 133.358C547.645 138.617 550.655 146.892 552.984 151.745L557.217 160.57L569.375 172.732L581.532 184.893L590.564 189.272C595.531 191.68 603.471 194.682 608.207 195.943C612.943 197.205 622.621 198.246 629.714 198.255L642.609 198.275L652.037 195.818C657.224 194.467 665.856 191.037 671.22 188.197L680.975 183.032L690.598 173.405L700.222 163.779L705.292 154.152C708.081 148.857 711.582 140.302 713.07 135.139L715.779 125.753V112.435V99.1183L713.07 89.7322C711.582 84.569 708.081 76.0139 705.292 70.7192L700.222 61.0924L690.598 51.4655L680.975 41.8387L671.22 36.6739C665.856 33.834 657.224 30.4036 652.037 29.0527L642.609 26.5962L628.912 26.739C621.378 26.8192 611.744 27.8381 607.501 29.0045ZM946.601 29.1329C941.849 30.41 933.549 33.7923 928.156 36.6482L918.353 41.8387L908.723 51.4655L899.093 61.0924L893.281 72.3237C890.084 78.5009 886.52 87.526 885.361 92.3796C884.203 97.2331 883.253 106.258 883.253 112.435C883.253 118.613 884.203 127.638 885.361 132.491C886.52 137.345 890.084 146.37 893.281 152.547L899.093 163.779L908.723 173.405L918.353 183.032L928.108 188.197C933.471 191.037 942.104 194.467 947.291 195.818L956.719 198.275L969.614 198.255C976.707 198.246 986.384 197.205 991.121 195.943C995.857 194.682 1003.8 191.68 1008.76 189.272L1017.8 184.893L1029.86 172.732L1041.93 160.57L1046.29 151.471C1048.69 146.466 1051.74 138.192 1053.07 133.083C1054.4 127.975 1055.49 118.683 1055.49 112.435C1055.49 106.188 1054.4 96.8961 1053.07 91.7875C1051.74 86.6789 1048.69 78.4046 1046.29 73.4003L1041.93 64.3013L1029.86 52.1394L1017.8 39.9775L1008.76 35.5989C1003.8 33.1906 995.857 30.1886 991.121 28.9275L982.509 26.6347L968.876 26.7214C961.378 26.7679 951.355 27.8541 946.601 29.1329ZM397.351 32.4798C396.762 33.067 396.281 39.9262 396.281 47.7223V61.8946H421.943H447.606V128.48V195.066H466.051H484.496V128.48V61.8946H509.356H534.217V46.6521V31.4096H466.319C428.973 31.4096 397.938 31.891 397.351 32.4798ZM718.666 32.5488C718.666 33.1745 732.741 56.1377 749.943 83.5758L781.219 133.462V164.265V195.066H799.664H818.109V164.138V133.21L848.694 84.5578C865.515 57.7984 879.668 34.8945 880.142 33.6575L881.004 31.4096H860.115H839.226L820.017 64.7024C809.454 83.0127 800.273 97.9952 799.619 97.9952C798.963 97.9952 789.79 83.0127 779.233 64.7024L760.039 31.4096H739.352C727.976 31.4096 718.666 31.9215 718.666 32.5488ZM1066.71 46.6344V61.8946H1091.58H1116.44V128.48V195.066H1134.88H1153.33V128.48V61.8946H1179.05H1204.77L1204.31 47.0532L1203.85 32.2119L1135.28 31.7931L1066.71 31.3759V46.6344ZM1258.47 32.8713C1257.97 33.6735 1242.77 70.2154 1224.69 114.074C1206.61 157.932 1191.82 194.097 1191.82 194.442C1191.82 194.785 1201.56 195.066 1213.47 195.066H1235.12V193.606C1235.12 192.802 1238.09 184.499 1241.71 175.154L1248.29 158.163H1281.47H1314.65L1320.7 174.67C1324.02 183.749 1327.3 192.075 1327.97 193.171L1329.2 195.162L1350.1 194.713L1371 194.264L1352.79 150.141C1342.77 125.873 1327.63 89.23 1319.15 68.7136L1303.72 31.4096H1281.55H1259.37L1258.47 32.8713ZM182.063 47.8555L187.26 53.07L190.708 62.3117C192.604 67.3963 194.607 74.379 195.159 77.8302L196.161 84.1053L188.713 85.222C184.615 85.8381 174.456 86.0419 166.134 85.6777C157.815 85.3151 150.536 84.5465 149.962 83.9705C149.388 83.3961 149.811 79.0961 150.905 74.4159C151.999 69.7356 154.65 62.1336 156.798 57.5224C158.946 52.9111 162.559 47.6757 164.83 45.89C167.1 44.1026 170.738 42.6409 172.913 42.6409H176.866L182.063 47.8555ZM45.1982 66.7545L48.669 74.825L56.3565 81.7387C60.5844 85.5413 68.9665 91.2227 74.9843 94.3643C81.0006 97.5058 91.6987 101.876 98.7559 104.075C105.813 106.274 115.738 108.925 120.81 109.966L130.032 111.861L130.037 120.973C130.038 125.984 130.837 136.583 131.811 144.525C132.783 152.467 135.315 164.963 137.439 172.294C139.563 179.626 143.093 189.165 145.285 193.495C147.479 197.824 151.621 204.04 154.488 207.308L159.704 213.251L148.331 212.193C142.076 211.611 130.13 209.403 121.785 207.285C113.441 205.168 101.274 201.163 94.7477 198.384C88.2214 195.606 76.9812 189.407 69.7716 184.606C62.5605 179.807 52.6772 171.575 47.8061 166.314C42.9366 161.051 36.7969 152.913 34.1617 148.228C31.528 143.545 28.0411 135.74 26.4116 130.887L23.4507 122.062L23.571 107.622L23.6913 93.1818L27.6289 82.7527C29.7958 77.0167 33.5217 69.2559 35.9115 65.5047C38.2997 61.7534 40.5853 58.6856 40.9911 58.6856C41.3969 58.6856 43.2895 62.3166 45.1982 66.7545ZM314.664 75.5326C317.154 80.8274 320.082 90.3932 321.173 96.7919L323.154 108.424L321.17 120.001L319.186 131.577L313.734 142.916L308.282 154.254L298.425 165.014L288.569 175.775L275.38 184.553C268.125 189.383 257.012 195.537 250.684 198.231C244.357 200.924 232.541 204.906 224.427 207.077C216.314 209.249 204.211 211.523 197.531 212.128L185.386 213.228L190.864 206.987C193.877 203.555 198.66 195.677 201.493 189.482C204.325 183.287 207.815 173.457 209.249 167.636C210.685 161.815 212.552 151.707 213.398 145.173C214.247 138.64 214.962 128.471 214.989 122.577L215.039 111.861L224.262 109.966C229.335 108.925 239.258 106.261 246.315 104.047C253.373 101.835 263.864 97.6503 269.63 94.7494C275.396 91.8485 283.725 86.2264 288.141 82.2553C292.556 78.2843 297.357 72.6189 298.808 69.6683C300.258 66.716 301.907 62.8573 302.47 61.0924L303.493 57.8834L306.815 61.8946C308.642 64.1007 312.174 70.2378 314.664 75.5326ZM652.201 64.3526C656.526 67.0273 662.721 72.7296 665.964 77.0232C669.208 81.3167 673.101 88.7679 674.614 93.5813L677.366 102.332V112.435V122.539L674.614 131.29C673.101 136.103 669.208 143.554 665.964 147.848C662.721 152.141 656.541 157.836 652.231 160.501L644.398 165.346L632.726 165.935L621.056 166.524L612.414 162.567C607.662 160.39 601.113 155.869 597.86 152.52C594.609 149.17 589.966 142.391 587.542 137.454L583.136 128.48V112.435V96.3907L587.542 87.4169C589.966 82.48 594.598 75.7123 597.838 72.375C601.076 69.0393 607.394 64.5644 611.877 62.4305L620.026 58.5509L632.181 59.0194L644.337 59.4879L652.201 64.3526ZM987.451 62.5139C991.934 64.6013 998.249 69.0361 1001.49 72.3702C1004.72 75.7043 1009.35 82.4719 1011.78 87.4105L1016.19 96.3907V112.435V128.48L1011.78 137.46C1009.35 142.399 1004.72 149.167 1001.49 152.501C998.249 155.835 991.934 160.27 987.451 162.357L979.302 166.153L968.79 166.169L958.279 166.185L949.948 162.033C945.366 159.748 939.093 154.93 936.007 151.323C932.921 147.718 928.923 141.719 927.12 137.995C925.317 134.269 923.16 126.98 922.324 121.794L920.807 112.37L922.332 102.993C923.171 97.8364 925.33 90.5761 927.128 86.8602C928.926 83.1442 932.921 77.1531 936.007 73.5479C939.093 69.941 945.366 65.1228 949.948 62.838L958.279 58.6856L968.79 58.7017L979.302 58.7177L987.451 62.5139ZM1293.34 102.809L1303.67 130.085L1282.01 130.532C1270.1 130.779 1260.06 130.691 1259.7 130.34C1259.35 129.987 1263.9 116.939 1269.8 101.345C1275.71 85.7515 1281.1 73.5639 1281.77 74.2635C1282.45 74.9614 1287.65 87.8068 1293.34 102.809ZM197.61 123.096C197.38 127.822 196.161 136.743 194.901 142.92C193.64 149.098 190.371 158.708 187.636 164.276L182.664 174.4L177.456 176.886L172.249 179.369L167.288 176.804L162.325 174.237L157.396 164.194C154.684 158.672 151.401 149.098 150.099 142.92C148.796 136.743 147.718 127.718 147.702 122.865L147.675 114.04L172.852 114.271L198.028 114.502L197.61 123.096Z" fill="#828AA3"/>
</svg>
