<svg width="505" height="165" viewBox="0 0 505 165" fill="none" xmlns="http://www.w3.org/2000/svg">
<path fill-rule="evenodd" clip-rule="evenodd" d="M27.6027 160.21C27.5435 160.27 27.4834 160.33 27.4232 160.389L27.6027 160.21Z" fill="#3E7DFF"/>
<path d="M83.1517 105.064C83.2771 104.948 138.613 49.1811 160.161 27.6513C163.147 24.7236 165 20.6439 165 16.1313C165 7.22222 157.778 0 148.869 0C144.593 0 140.706 1.66338 137.819 4.37849C137.587 4.61059 137.35 4.84851 137.106 5.09201C121.652 20.556 83.4507 58.5335 83.2098 58.5335C82.9663 58.5335 65.1208 40.8765 57.5391 33.3435L57.3789 33.1844C54.4694 30.3331 50.4849 28.5754 46.0894 28.5754C37.1803 28.5754 29.9581 35.7976 29.9581 44.7067C29.9581 49.3386 31.9103 53.5145 35.0367 56.4565C49.07 70.4919 83.0289 105.178 83.1517 105.064Z" fill="#3E7DFF"/>
<path d="M73.2821 114.316C73.2821 113.924 68.251 108.576 62.1018 102.43C55.953 96.2849 50.8149 91.257 50.6845 91.257C50.5562 91.257 17.8852 124.27 4.38973 137.807C1.66805 140.695 0 144.587 0 148.869C0 157.778 7.22222 165 16.1313 165C20.528 165 24.5135 163.241 27.4232 160.389L27.6027 160.21C40.7149 147.153 73.2821 114.707 73.2821 114.316Z" fill="url(#paint0_linear_4133_12)"/>
<path d="M103.442 102.808L91.9548 114.302L108.45 130.324C111.396 133.509 115.612 135.503 120.293 135.503C129.202 135.503 136.425 128.281 136.425 119.372C136.425 115.314 134.926 111.606 132.453 108.771C132.048 108.362 131.588 107.893 131.084 107.38C125.868 102.067 116.015 91.9057 115.653 91.7077L114.929 91.3137L103.442 102.808Z" fill="url(#paint1_linear_4133_12)"/>
<path d="M495.64 59.1309C496.013 59.1309 496.363 59.1542 496.69 59.2009C497.016 59.2475 497.343 59.3175 497.67 59.4109C498.276 59.5975 498.86 59.8309 499.42 60.1109C499.98 60.3909 500.516 60.7875 501.03 61.3009C501.776 62.0475 502.336 62.8875 502.71 63.8209C503.13 64.7542 503.34 65.7109 503.34 66.6909C503.34 67.6709 503.153 68.6275 502.78 69.5609C502.453 70.4942 501.916 71.3109 501.17 72.0109L467.57 109.041H497.04C498.113 109.041 499.116 109.251 500.05 109.671C500.983 110.091 501.776 110.651 502.43 111.351C503.13 112.051 503.666 112.868 504.04 113.801C504.46 114.688 504.67 115.644 504.67 116.671C504.67 117.744 504.46 118.748 504.04 119.681C503.666 120.568 503.13 121.361 502.43 122.061C501.776 122.714 500.983 123.251 500.05 123.671C499.116 124.044 498.113 124.231 497.04 124.231H451.61C450.396 124.231 449.276 123.974 448.25 123.461C447.223 122.948 446.383 122.248 445.73 121.361C445.03 120.521 444.516 119.611 444.19 118.631C443.863 117.651 443.746 116.648 443.84 115.621C443.933 114.034 444.586 112.658 445.8 111.491L479.33 74.3209H452.17C451.096 74.3209 450.093 74.1109 449.16 73.6909C448.273 73.2709 447.48 72.7109 446.78 72.0109C446.126 71.3109 445.59 70.4942 445.17 69.5609C444.796 68.6275 444.61 67.6242 444.61 66.5509C444.61 65.5242 444.796 64.5675 445.17 63.6809C445.59 62.7475 446.126 61.9542 446.78 61.3009C447.48 60.6475 448.273 60.1342 449.16 59.7609C450.093 59.3409 451.096 59.1309 452.17 59.1309H495.64Z" fill="#1F2D54"/>
<path d="M410.039 88.67L431.529 111.56C432.229 112.26 432.743 113.077 433.069 114.01C433.443 114.943 433.629 115.9 433.629 116.88C433.629 117.86 433.419 118.817 432.999 119.75C432.626 120.683 432.066 121.523 431.319 122.27C430.619 122.97 429.803 123.507 428.869 123.88C427.936 124.207 426.979 124.347 425.999 124.3C425.066 124.3 424.133 124.113 423.199 123.74C422.266 123.367 421.449 122.783 420.749 121.99L399.539 98.68L393.309 104.56V116.81C393.309 118.91 392.586 120.683 391.139 122.13C389.739 123.53 387.989 124.23 385.889 124.23C384.863 124.23 383.883 124.043 382.949 123.67C382.016 123.25 381.199 122.713 380.499 122.06C379.799 121.407 379.239 120.637 378.819 119.75C378.399 118.817 378.189 117.837 378.189 116.81V41.42C378.189 40.3933 378.399 39.4367 378.819 38.55C379.239 37.6167 379.799 36.8233 380.499 36.17C381.199 35.5167 382.016 35.0033 382.949 34.63C383.883 34.21 384.863 34 385.889 34C386.916 34 387.896 34.21 388.829 34.63C389.763 35.0033 390.556 35.5167 391.209 36.17C391.863 36.8233 392.376 37.6167 392.749 38.55C393.169 39.4367 393.379 40.3933 393.379 41.42V84.61L417.249 61.23C417.996 60.4833 418.813 59.9467 419.699 59.62C420.633 59.2933 421.543 59.1533 422.429 59.2C423.363 59.2 424.273 59.41 425.159 59.83C426.046 60.25 426.863 60.8333 427.609 61.58V61.65C428.309 62.3967 428.846 63.2367 429.219 64.17C429.593 65.0567 429.779 65.99 429.779 66.97C429.779 67.9033 429.593 68.8367 429.219 69.77C428.846 70.6567 428.286 71.45 427.539 72.15L410.039 88.67Z" fill="#1F2D54"/>
<path d="M345.449 115.97C345.449 114.71 345.683 113.543 346.149 112.47C346.663 111.35 347.316 110.37 348.109 109.53C348.949 108.69 349.906 108.037 350.979 107.57C352.099 107.103 353.289 106.87 354.549 106.87C355.809 106.87 356.976 107.103 358.049 107.57C359.169 108.037 360.126 108.69 360.919 109.53C361.759 110.37 362.413 111.35 362.879 112.47C363.346 113.543 363.579 114.71 363.579 115.97C363.579 117.183 363.346 118.35 362.879 119.47C362.413 120.543 361.759 121.5 360.919 122.34C360.126 123.133 359.169 123.763 358.049 124.23C356.976 124.743 355.809 125 354.549 125C353.289 125 352.099 124.743 350.979 124.23C349.906 123.763 348.949 123.133 348.109 122.34C347.316 121.5 346.663 120.543 346.149 119.47C345.683 118.35 345.449 117.183 345.449 115.97Z" fill="#1F2D54"/>
<path d="M310.168 66.4802C310.168 64.2402 310.588 62.4436 311.428 61.0902C312.315 59.6902 313.855 58.9902 316.048 58.9902C317.961 58.9902 319.501 59.7136 320.668 61.1602C321.835 62.6069 322.791 64.4036 323.538 66.5502L324.028 69.2102C326.361 66.1302 329.161 63.7036 332.428 61.9302C335.741 60.1102 339.591 59.1769 343.978 59.1302H344.328C346.848 59.1302 348.785 59.8536 350.138 61.3002C351.538 62.7002 352.238 64.4969 352.238 66.6902C352.238 67.7636 352.028 68.7669 351.608 69.7002C351.188 70.6336 350.605 71.4502 349.858 72.1502C349.158 72.8036 348.318 73.3402 347.338 73.7602C346.405 74.1336 345.401 74.3202 344.328 74.3202H343.978C341.365 74.3669 338.938 74.9269 336.698 76.0002C334.458 77.0269 332.521 78.4269 330.888 80.2002C329.255 81.9736 327.948 84.0502 326.968 86.4302C325.988 88.7636 325.451 91.2602 325.358 93.9202V116.46C325.358 118.607 324.658 120.45 323.258 121.99C321.905 123.484 320.131 124.23 317.938 124.23C316.865 124.23 315.838 124.02 314.858 123.6C313.925 123.18 313.108 122.62 312.408 121.92C311.708 121.22 311.148 120.404 310.728 119.47C310.355 118.537 310.168 117.534 310.168 116.46V66.4802Z" fill="#1F2D54"/>
<path d="M227.777 91.68C227.777 87.06 228.641 82.7434 230.367 78.73C232.141 74.67 234.544 71.1234 237.577 68.09C240.611 65.0567 244.157 62.6767 248.217 60.95C252.277 59.1767 256.594 58.29 261.167 58.29C265.134 58.29 268.891 58.9434 272.437 60.25C276.031 61.5567 279.297 63.3534 282.237 65.64C283.031 63.68 283.917 62.0934 284.897 60.88C285.924 59.62 287.324 58.99 289.097 58.99C291.291 58.99 292.831 59.69 293.717 61.09C294.604 62.4434 295.047 64.24 295.047 66.48V116.46C295.047 117.533 294.837 118.537 294.417 119.47C294.044 120.403 293.507 121.22 292.807 121.92C292.107 122.62 291.267 123.18 290.287 123.6C289.354 124.02 288.351 124.23 287.277 124.23C285.364 124.23 283.777 123.67 282.517 122.55C281.257 121.43 280.441 120.03 280.067 118.35C277.314 120.403 274.351 122.037 271.177 123.25C268.004 124.463 264.667 125.07 261.167 125.07C256.594 125.07 252.277 124.207 248.217 122.48C244.157 120.707 240.611 118.303 237.577 115.27C234.544 112.237 232.141 108.69 230.367 104.63C228.641 100.57 227.777 96.2534 227.777 91.68ZM242.967 91.68C242.967 94.1534 243.434 96.51 244.367 98.75C245.347 100.943 246.654 102.88 248.287 104.56C249.967 106.193 251.904 107.5 254.097 108.48C256.291 109.413 258.647 109.88 261.167 109.88C263.687 109.88 266.044 109.413 268.237 108.48C270.431 107.5 272.344 106.193 273.977 104.56C275.611 102.88 276.894 100.943 277.827 98.75C278.761 96.51 279.227 94.1534 279.227 91.68C279.227 89.16 278.761 86.8034 277.827 84.61C276.894 82.37 275.611 80.4334 273.977 78.8C272.344 77.1667 270.431 75.8834 268.237 74.95C266.044 73.97 263.687 73.48 261.167 73.48C258.647 73.48 256.291 73.97 254.097 74.95C251.904 75.8834 249.967 77.1667 248.287 78.8C246.654 80.4334 245.347 82.37 244.367 84.61C243.434 86.8034 242.967 89.16 242.967 91.68Z" fill="#1F2D54"/>
<path d="M174.12 91.68C174.12 91.7267 174.143 91.75 174.19 91.75C174.19 93.9434 174.633 96.1134 175.52 98.26C176.407 100.36 177.62 102.273 179.16 104C180.747 105.68 182.59 107.057 184.69 108.13C186.79 109.203 189.053 109.763 191.48 109.81C193.72 109.903 195.843 109.623 197.85 108.97C199.903 108.27 201.933 107.103 203.94 105.47C204.687 104.863 205.503 104.28 206.39 103.72C207.323 103.113 208.28 102.693 209.26 102.46C210.287 102.227 211.36 102.25 212.48 102.53C213.6 102.763 214.79 103.417 216.05 104.49C216.89 105.19 217.497 106.03 217.87 107.01C218.29 107.943 218.477 108.947 218.43 110.02C218.43 111.047 218.197 112.097 217.73 113.17C217.263 114.197 216.587 115.153 215.7 116.04C212.807 118.98 209.353 121.22 205.34 122.76C201.373 124.3 197.197 125.07 192.81 125.07C188.143 125.07 183.757 124.23 179.65 122.55C175.543 120.823 171.95 118.467 168.87 115.48C165.837 112.493 163.433 108.993 161.66 104.98C159.887 100.92 159 96.5567 159 91.89C159 91.89 159.023 91.8667 159.07 91.82L159 91.75C159 87.0834 159.887 82.72 161.66 78.66C163.433 74.5534 165.837 71.0067 168.87 68.02C171.95 64.9867 175.543 62.6067 179.65 60.88C183.757 59.1534 188.143 58.29 192.81 58.29C197.243 58.29 201.443 59.0367 205.41 60.53C209.377 61.9767 212.807 64.17 215.7 67.11C216.587 68.0434 217.263 69.0234 217.73 70.05C218.197 71.0767 218.43 72.1267 218.43 73.2C218.477 74.2267 218.29 75.23 217.87 76.21C217.497 77.1434 216.89 77.9834 216.05 78.73C214.79 79.8034 213.6 80.48 212.48 80.76C211.36 80.9934 210.287 80.9934 209.26 80.76C208.28 80.48 207.323 80.06 206.39 79.5C205.503 78.8934 204.687 78.2867 203.94 77.68C201.933 76.0467 199.903 74.9267 197.85 74.32C195.843 73.6667 193.72 73.3867 191.48 73.48C189.1 73.5734 186.86 74.1567 184.76 75.23C182.66 76.2567 180.817 77.6334 179.23 79.36C177.69 81.04 176.453 82.9534 175.52 85.1C174.633 87.2 174.19 89.37 174.19 91.61L174.12 91.68Z" fill="#1F2D54"/>
<defs>
<linearGradient id="paint0_linear_4133_12" x1="62" y1="101.5" x2="32.5" y2="143.5" gradientUnits="userSpaceOnUse">
<stop stop-color="#1058EE"/>
<stop offset="1" stop-color="#3E7DFF"/>
</linearGradient>
<linearGradient id="paint1_linear_4133_12" x1="101.5" y1="94.5" x2="125.5" y2="127" gradientUnits="userSpaceOnUse">
<stop stop-color="#1059EE"/>
<stop offset="1" stop-color="#3E7DFF"/>
</linearGradient>
</defs>
</svg>
