<svg width="1867" height="226" viewBox="0 0 1867 226" fill="none" xmlns="http://www.w3.org/2000/svg">
<path d="M1866.61 4.04688V221.953H1813.69V54.4766H1729.95V221.953H1677.03V4.04688H1729.95H1866.61Z" fill="#828AA3"/>
<path d="M1665.98 4.04688L1557.96 221.953H1498.82L1535.55 148.176L1462.09 4.04688H1521.54L1564.81 90.5868L1607.15 4.04688H1665.98Z" fill="#828AA3"/>
<path d="M1466.86 221.953H1400.87L1328.02 123.273V221.953H1275.1V4.04688H1328.02V96.8127L1396.2 4.04688H1461.26L1382.81 109.265L1466.86 221.953Z" fill="#828AA3"/>
<path d="M1106.93 83.7383C1153.93 83.7383 1181.33 106.463 1181.33 152.534C1181.33 198.606 1152.07 221.953 1105.99 221.953H1011.67V4.04688H1064.59V83.7383H1106.93ZM1204.99 4.04688H1257.91V221.953H1204.99V4.04688ZM1103.82 171.523C1119.07 171.523 1127.78 166.231 1127.78 151.912C1127.78 137.592 1120 133.234 1104.75 133.234H1064.59V171.523H1103.82Z" fill="#828AA3"/>
<path d="M964.615 103.973C987.028 112.066 997.612 133.546 997.612 158.138C997.612 199.229 966.794 221.953 923.213 221.953H824.844V4.04688H923.213C961.191 4.04688 990.141 22.7246 990.141 61.3251C990.141 82.4932 981.114 95.2563 964.615 103.973ZM936.599 70.664C936.599 57.2783 928.816 54.4766 916.053 54.4766H877.764V87.1626H918.232C930.061 87.1626 936.599 82.1819 936.599 70.664ZM921.968 171.523C939.712 171.523 944.07 164.675 944.07 153.468C944.07 141.328 939.712 135.413 921.968 135.413H877.764V171.523H921.968Z" fill="#828AA3"/>
<path d="M695.496 0C759.934 0 809.43 48.8733 809.43 113C809.43 177.127 759.934 226 695.496 226C631.058 226 581.562 177.127 581.562 113C581.562 48.8733 631.058 0 695.496 0ZM695.496 50.4298C660.631 50.4298 635.105 76.5785 635.105 113C635.105 149.421 660.631 175.57 695.496 175.57C730.361 175.57 755.888 149.421 755.888 113C755.888 76.5785 730.361 50.4298 695.496 50.4298Z" fill="#828AA3"/>
<path d="M580.133 4.04688V54.4766H520.675V221.953H467.755V54.4766H408.609V4.04688H580.133Z" fill="#828AA3"/>
<path d="M375.564 103.973C397.978 112.066 408.562 133.546 408.562 158.138C408.562 199.229 377.743 221.953 334.162 221.953H235.793V4.04688H334.162C372.14 4.04688 401.09 22.7246 401.09 61.3251C401.09 82.4932 392.063 95.2563 375.564 103.973ZM347.548 70.664C347.548 57.2783 339.765 54.4766 327.002 54.4766H288.713V87.1626H329.181C341.011 87.1626 347.548 82.1819 347.548 70.664ZM332.917 171.523C350.661 171.523 355.019 164.675 355.019 153.468C355.019 141.328 350.661 135.413 332.917 135.413H288.713V171.523H332.917Z" fill="#828AA3"/>
<path d="M168.722 221.953L153.157 176.815H71.5978L56.0331 221.953H0L79.0689 4.04688H145.686L224.755 221.953H168.722ZM89.0303 126.386H135.725L112.377 58.5235L89.0303 126.386Z" fill="#828AA3"/>
</svg>
