<svg width="606" height="226" viewBox="0 0 606 226" fill="none" xmlns="http://www.w3.org/2000/svg">
<path d="M516.933 29.3502H490.287V145.076H523.492V70.8604C533.741 64.571 547.679 59.1202 565.716 59.5395V26.8345C546.039 27.6731 532.101 34.3818 520.623 41.9291L516.933 29.3502Z" fill="#828AA3"/>
<path d="M335.333 29.3507H300.488V0H272.202L268.513 29.3507H248.016V56.6048H266.873V107.759C266.873 137.948 286.55 147.592 310.327 147.592C320.575 147.592 327.134 146.753 335.333 143.399V116.564C329.594 118.66 321.395 119.499 317.296 119.499C303.768 119.499 300.488 112.79 300.488 101.469V56.6048H335.333V29.3507Z" fill="#828AA3"/>
<path d="M193.081 26.8345C160.696 26.8345 137.329 36.8976 137.329 62.0553C137.329 77.1499 142.658 90.148 167.665 95.5989L192.261 100.63C207.429 103.985 209.479 106.92 209.479 110.693C209.479 116.983 204.149 120.337 183.652 120.337C168.485 120.337 147.578 114.886 139.789 112.371V140.463C148.807 143.398 169.714 147.591 184.882 147.591C226.696 147.591 242.274 131.658 242.274 109.855C242.274 92.2445 232.845 81.3428 209.069 75.892L186.112 70.8605C172.584 67.5061 169.714 67.5061 169.714 62.0553C169.714 54.5079 185.292 53.6694 195.131 53.6694C207.019 53.6694 219.727 56.1851 235.305 61.636V34.3818C225.466 30.6081 211.118 26.8345 193.081 26.8345Z" fill="#828AA3"/>
<path d="M56.9816 26.8345C40.1741 26.8345 19.6771 29.3502 9.42862 32.7046V60.3781C21.3169 57.0237 33.2051 53.6694 46.7331 53.6694C68.05 53.6694 81.988 58.7009 81.988 75.0534V79.6656C68.05 74.2148 56.1618 73.3762 47.1431 73.3762C25.8262 73.3762 0 81.7621 0 109.016C0 130.82 16.3976 147.591 45.0934 147.591C65.5904 147.591 79.5283 139.206 86.0874 135.013L89.3669 145.076H115.193V74.6341C115.193 38.5747 90.1868 26.8345 56.9816 26.8345ZM34.4349 109.855C34.4349 101.469 40.994 96.0182 54.9319 96.0182C66.8202 96.0182 75.8389 97.6953 81.988 101.05V114.886C75.4289 118.241 66.0003 122.853 55.3419 122.853C41.4039 122.853 34.4349 117.402 34.4349 109.855Z" fill="#828AA3"/>
<path d="M468.15 99.7918V83.8586C468.15 47.3799 448.883 26.8345 411.578 26.8345C379.193 26.8345 348.857 45.7027 348.857 86.3744C348.857 129.142 375.094 147.591 415.268 147.591C432.075 147.591 448.883 143.818 462.001 139.206V112.79C450.113 116.564 432.485 120.757 416.497 120.757C403.379 120.757 384.932 116.983 382.882 99.7918H468.15ZM383.292 78.4078C384.932 61.2167 395.591 53.6694 411.578 53.6694C425.926 53.6694 433.715 62.8938 434.125 78.4078H383.292Z" fill="#828AA3"/>
<path d="M373.044 226C386.402 226 397.23 214.924 397.23 201.261C397.23 187.599 386.402 176.523 373.044 176.523C359.686 176.523 348.857 187.599 348.857 201.261C348.857 214.924 359.686 226 373.044 226Z" fill="#828AA3"/>
<path d="M441.914 226C455.272 226 466.101 214.924 466.101 201.261C466.101 187.599 455.272 176.523 441.914 176.523C428.556 176.523 417.728 187.599 417.728 201.261C417.728 214.924 428.556 226 441.914 226Z" fill="#828AA3"/>
<path d="M512.425 226C525.783 226 536.611 214.924 536.611 201.261C536.611 187.599 525.783 176.523 512.425 176.523C499.067 176.523 488.238 187.599 488.238 201.261C488.238 214.924 499.067 226 512.425 226Z" fill="#828AA3"/>
<path d="M581.702 226C595.06 226 605.889 214.924 605.889 201.261C605.889 187.599 595.06 176.523 581.702 176.523C568.344 176.523 557.516 187.599 557.516 201.261C557.516 214.924 568.344 226 581.702 226Z" fill="#828AA3"/>
</svg>
